<svg xmlns="http://www.w3.org/2000/svg" width="78" height="52" viewBox="0 0 78 52">
  <g id="Group_2106" data-name="Group 2106" transform="translate(0)">
    <rect id="Rectangle_1293" data-name="Rectangle 1293" width="78" height="52" rx="5" transform="translate(0)" fill="#f5f5f5"/>
    <g id="ALELO" transform="translate(15.419 10.136)">
      <path id="Caminho_3969" data-name="Caminho 3969" d="M991.382,1644.152a15.6,15.6,0,0,0-8.734,2.659c-.178.12-1.4,1-1.458,1.038-2.037,1.533-3.406,1.805-5.28,1.329-.113-.028-.65-.214-.82-.278a11.679,11.679,0,1,0-.424,22.009c2.8-.837,4.312-.608,6.059.63.351.249,1.2.789,1.37.917a15.677,15.677,0,1,0,9.29-28.3Z" transform="translate(-959.288 -1644.152)" fill="#000007"/>
      <path id="Caminho_3970" data-name="Caminho 3970" d="M1002.7,1676.237a2.771,2.771,0,0,1-3.429.365l-1.039,1.65a4.734,4.734,0,0,0,5.832-.62Z" transform="translate(-976.265 -1658.138)" fill="#fff"/>
      <path id="Caminho_3971" data-name="Caminho 3971" d="M999.118,1664.314a4.736,4.736,0,0,0-4.04,7.319l8.579-3.666A4.737,4.737,0,0,0,999.118,1664.314Zm-2.842,5.029a2.786,2.786,0,0,1,4.9-2.094Z" transform="translate(-974.555 -1652.941)" fill="#fff"/>
      <path id="Caminho_3972" data-name="Caminho 3972" d="M1014.251,1660.533v9.144l1.587.657-.747,1.8-1.569-.651a1.734,1.734,0,0,1-.772-.65h0a2.024,2.024,0,0,1-.305-1.134v-9.167Z" transform="translate(-982.458 -1651.293)" fill="#fff"/>
      <path id="Caminho_3973" data-name="Caminho 3973" d="M989.778,1660.533v9.144l1.587.657-.748,1.8-1.569-.651a1.746,1.746,0,0,1-.773-.65h0a2.029,2.029,0,0,1-.3-1.134v-9.167Z" transform="translate(-971.79 -1651.293)" fill="#fff"/>
      <path id="Caminho_3974" data-name="Caminho 3974" d="M1026.092,1666.537a2.789,2.789,0,0,1,1.306,3.722h0l1.754.843h0a4.735,4.735,0,0,0-7.454-5.552l1.312,1.443A2.784,2.784,0,0,1,1026.092,1666.537Z" transform="translate(-986.493 -1652.942)" fill="#b2b2b2"/>
      <path id="Caminho_3975" data-name="Caminho 3975" d="M1022.481,1673.638a2.79,2.79,0,0,1-1.305-3.721h0l-1.754-.843h0a4.735,4.735,0,0,0,7.456,5.552l-1.311-1.439A2.79,2.79,0,0,1,1022.481,1673.638Z" transform="translate(-985.296 -1655.016)" fill="#fff"/>
      <path id="Caminho_3976" data-name="Caminho 3976" d="M977.5,1671.7v-2.644a4.727,4.727,0,1,0-4.727,4.727h0a4.713,4.713,0,0,0,2.107-.5l-.765-1.783a2.79,2.79,0,0,1-4.136-2.446h0a2.793,2.793,0,1,1,5.587,0h0v2.625a2.037,2.037,0,0,0,.3,1.133,1.743,1.743,0,0,0,.773.65l.886.352.749-1.8Z" transform="translate(-963.105 -1652.948)" fill="#fff"/>
    </g>
  </g>
</svg>
