<svg xmlns="http://www.w3.org/2000/svg" width="78" height="52" viewBox="0 0 78 52">
  <g id="Group_2109" data-name="Group 2109" transform="translate(0 0)">
    <rect id="Rectangle_1297" data-name="Rectangle 1297" width="78" height="52" rx="5" transform="translate(0 0)" fill="#f5f5f5"/>
    <g id="AMERICAN_EXPRESS" data-name="AMERICAN EXPRESS" transform="translate(19.652 12.936)">
      <path id="card_bg" data-name="card bg" d="M361.026,1650.12h37.7a1.571,1.571,0,0,1,1.571,1.571v23.958a1.571,1.571,0,0,1-1.571,1.571h-37.7a1.571,1.571,0,0,1-1.571-1.571h0v-23.958A1.571,1.571,0,0,1,361.026,1650.12Z" transform="translate(-359.454 -1650.12)" fill="#dbdbdb"/>
      <path id="Path-20" d="M363.869,1664.182l.459,1.123h-1.54l.467-1.123.308-.749Z" transform="translate(-360.762 -1655.344)" fill="#000007"/>
      <path id="Shape-12" d="M385.8,1666.967a3.387,3.387,0,0,1-1.974-.63v.629h-4.092l-.987-1.243v1.243H363.139l-.392-1.036H361.8l-.4,1.036h-1.941v-1.036h1.3l.408-1.005H363.4l.41.968h1.311l-2.062-4.8h-1.515l-2.085,4.832v-2.7l1.362-3.234h2.774l.8,1.787v-1.787h3.4l.51,1.532.511-1.5h15.01v.7a3.325,3.325,0,0,1,2.033-.7H390.5l.851,1.787v-1.786h2.672l.911,1.414v-1.414h3.056v6.945h-2.878l-.851-1.345v1.345h-4.17l-.414-1.036h-.954l-.392,1.036H385.8Zm6.467-5.873v4.834h1.139v-3.234l.306.528,1.78,2.671h1.36l.043-4.834h-1.192v3.133l-.323-.544-1.7-2.553Zm-3.806,0-2.059,4.834h1.243l.408-1h2.273l.408.97h1.311l-2.05-4.8Zm-2.782-.006a2.171,2.171,0,0,0-2.17,2.171,1.967,1.967,0,0,0,.01.2v.069a2.128,2.128,0,0,0,1.873,2.355,2.081,2.081,0,0,0,.239.014c.039,0,.078,0,.117,0h.068l.467-1.021h-.425a1.191,1.191,0,0,1-1.193-1.19,1.144,1.144,0,0,1,.01-.158v-.066a1.191,1.191,0,0,1,1.046-1.32,1.166,1.166,0,0,1,.137-.008h1.328v-1.036h-1.352C385.783,1661.091,385.732,1661.088,385.68,1661.088Zm-4.007.006v4.8h1.166v-4.8Zm-3.674,3.1h.527l1.43,1.7h1.481l-1.6-1.77a1.483,1.483,0,0,0,1.311-1.515,1.507,1.507,0,0,0-1.486-1.527,1.457,1.457,0,0,0-.216.013h-2.629v4.8H378Zm-7.832-2.173h0v3.875h1.124v-4.8h-1.879l-.953,2.775-.155.528-.156-.528-.933-2.775h-1.88v4.8h1.112v-3.88l.238.732,1.088,3.149h1.036l1.132-3.149Zm2.053-.924v4.766h3.83v-1.022h-2.7v-.85h2.628v-1.022H373.35v-.851h2.7v-1.021ZM390,1663.954h-1.514l.441-1.123.307-.749.29.716.169.414-.169-.414-.29-.716.306.749.176.429h0l.27.657h0l-.5-1.088.518,1.122Zm-10.586-.777a.559.559,0,0,1-.077-.006H378v-1.055h1.347a.535.535,0,0,1,.589.475c0,.016,0,.033,0,.05v.017a.518.518,0,0,1-.518.518Zm.345-.165a.518.518,0,0,1-.341.13A.518.518,0,0,0,379.763,1663.012Z" transform="translate(-359.454 -1653.991)" fill="#000007"/>
      <path id="Shape-13" d="M389.336,1681.918h-2.918v-1.754a4.186,4.186,0,0,1-1.24.187h-.514v1.567h-4.3l-.715-1.036-.732,1.036h-7.027v-6.944h7.045l.715,1.021.736-1.021h24.795v1.072h-2.494a1.481,1.481,0,0,0-1.641,1.3,1.582,1.582,0,0,0-.009.215,1.337,1.337,0,0,0,1.5,1.412h1.1a.434.434,0,1,1,0,.85h-2.459v1.022h2.443c.046,0,.093.006.139.006a1.511,1.511,0,0,0,1.41-.977v1.617a2.852,2.852,0,0,1-1.5.426H390.323l-.987-1.243v1.243Zm-9.687-2.6h0l1.157,1.531,1.464.034-1.936-2.416,1.906-2.417h-1.414l-1.175,1.515-1.166-1.5h-1.447l1.932,2.4-1.871,2.383h1.354l1.2-1.53Zm17.088.51v1.022h2.486c.039,0,.079,0,.118,0a1.489,1.489,0,0,0,1.491-1.489c0-.016,0-.032,0-.047a1.319,1.319,0,0,0-1.244-1.389,1.366,1.366,0,0,0-.255.01H398.22a.434.434,0,1,1,0-.851h2.068l.46-1.022h-2.494a1.481,1.481,0,0,0-1.641,1.3,1.51,1.51,0,0,0-.009.2,1.335,1.335,0,0,0,1.244,1.421,1.365,1.365,0,0,0,.255-.007h1.124a.434.434,0,0,1,.171.851.449.449,0,0,1-.171,0Zm-8.193-.681h.528l1.43,1.7h1.48l-1.605-1.77a1.526,1.526,0,0,0-.357-3.03h-2.606v4.8h1.131Zm-6.067-3.1v4.8h1.14v-1.583h1.472a1.573,1.573,0,0,0,1.729-1.4,1.478,1.478,0,0,0,.008-.214,1.543,1.543,0,0,0-1.7-1.6Zm9.778,0v4.749h3.871v-1.021h-2.7v-.851h2.63v-1h-2.63v-.85H396.1l.025-1.021Zm-19.258,0v4.749h3.856v-1.021h-2.7v-.851H376.8v-1h-2.646v-.85h2.7v-1.021Zm32.14,2.669a1.379,1.379,0,0,0-1.393-.8h-1.116a.434.434,0,1,1,0-.851h2.094l.414-.987v2.635Zm-20.115-.473h-1.379v-1.175h1.379a.587.587,0,0,1,0,1.175h0Zm4.973-.114a.54.54,0,0,1-.077-.006h-1.347v-1.055h1.344a.473.473,0,0,1,.067,0,.528.528,0,0,1,.529.527v.02a.518.518,0,0,1-.518.518Z" transform="translate(-364.334 -1659.872)" fill="#000007"/>
    </g>
  </g>
</svg>
