<svg xmlns="http://www.w3.org/2000/svg" width="78" height="52" viewBox="0 0 78 52">
  <g id="Group_2105" data-name="Group 2105" transform="translate(-0.5)">
    <rect id="Rectangle_1288" data-name="Rectangle 1288" width="78" height="52" rx="5" transform="translate(0.5)" fill="#f5f5f5"/>
    <g id="BEN" transform="translate(20.435 8.237)">
      <g id="BEN-2" data-name="BEN">
        <path id="Path_520" data-name="Path 520" d="M36.333,24.48a1.876,1.876,0,0,1-1.847-1.844,11.555,11.555,0,0,0-23.108.223V45.75a1.838,1.838,0,0,0,1.838,1.836h22.89a11.555,11.555,0,0,0,.227-23.107Z" transform="translate(-11.379 -11.303)" fill="#000007" fill-rule="evenodd"/>
        <path id="Path_521" data-name="Path 521" d="M43.584,87.087c-.07.659-.247.815-.9.815H37.759v.39c0,1.292.745,1.8,2.533,1.8a9.794,9.794,0,0,0,2.3-.282c.567-.143.727,0,.727.62v.232c0,.584-.107.706-.727.866a8.663,8.663,0,0,1-2.3.285c-2.975,0-4.357-1.118-4.357-3.79V86.486c0-2.567,1.311-3.84,3.931-3.84,2.462,0,3.754,1.255,3.754,3.661,0,.268-.019.516-.037.779Zm-13.5-4.441h0a6.565,6.565,0,0,0-2.24.346V80.025c0-.638-.16-.8-.8-.8h-.216c-.635,0-.795.157-.795.8v8c0,2.535,1.5,3.792,4.036,3.792,2.709,0,4.055-1.224,4.055-3.792V86.5c0-2.566-1.583-3.858-4.045-3.858Zm2.221,5.344c0,1.488-.46,2.107-2.214,2.107s-2.247-.637-2.247-2.107V86.469c0-1.488.494-2.126,2.211-2.126h.035c1.72,0,2.214.638,2.214,2.126v1.522ZM47.25,91.019c0,.638-.158.8-.8.8h-.227c-.641,0-.8-.16-.8-.8v-4.94c0-2.283,1.292-3.432,3.86-3.432,2.69,0,3.841,1.149,3.841,3.432v4.94c0,.638-.158.8-.795.8H52.1c-.637,0-.8-.16-.8-.8v-4.94c0-1.2-.444-1.734-2.019-1.734s-2.036.53-2.036,1.734v4.94Zm-9.5-4.6h4.055V86.1c0-1.167-.675-1.75-2.045-1.75-1.333,0-2.01.583-2.01,1.75Z" transform="translate(-22.428 -62.5)" fill="#fff" fill-rule="evenodd"/>
      </g>
    </g>
  </g>
</svg>
