<svg xmlns="http://www.w3.org/2000/svg" width="79" height="52" viewBox="0 0 79 52">
  <g id="Group_2108" data-name="Group 2108" transform="translate(-0.5 0)">
    <rect id="Rectangle_1291" data-name="Rectangle 1291" width="79" height="52" rx="5" transform="translate(0.5 0)" fill="#f5f5f5"/>
    <g id="DINNERS_CLUB" data-name="DINNERS CLUB" transform="translate(19.939 12.008)">
      <path id="Shape" d="M466.545,1683.8h-2.308v-.217l.033,0c.481-.048.721-.073.721-.635v-4.02c0-.715-.384-.715-.754-.715v-.216h2.412c.1-.009.2-.014.3-.014a3.037,3.037,0,0,1,3.034,2.924C469.981,1681.2,469.884,1683.8,466.545,1683.8Zm-.413-5.511c-.108,0-.217,0-.325.01l-.051,4.521c0,.629.439.714.869.714h.087a2.3,2.3,0,0,0,2.3-2.554,2.555,2.555,0,0,0-2.426-2.678c-.041,0-.082,0-.124,0C466.35,1678.288,466.239,1678.285,466.132,1678.285Z" transform="translate(-464.198 -1660.817)" fill="#211e1f"/>
      <path id="Path" d="M476.743,1685.348v-.216h-.14c-.24,0-.421,0-.421-.281v-3.305a.326.326,0,0,0-.153,0,8.8,8.8,0,0,1-.893.306v.127c.306.166.433.217.433.587v2.246c0,.281-.166.281-.4.281h-.165v.255Z" transform="translate(-468.893 -1662.369)" fill="#211e1f"/>
      <path id="Path-2" d="M476.184,1678.748a.408.408,0,1,0-.408-.408.408.408,0,0,0,.408.408Z" transform="translate(-469.228 -1660.798)" fill="#211e1f"/>
      <path id="Path-3" d="M482.714,1685.258h-.141c-.24,0-.421,0-.421-.281v-2.106c0-.638-.242-1.161-.957-1.161a2.4,2.4,0,0,0-1.429.625v-.625a10.588,10.588,0,0,1-1.1.4v.166c.385.153.485.24.485.549h0v2.195c0,.281-.166.281-.408.281h-.141v.127h1.774v-.217h-.153c-.23,0-.408,0-.408-.281v-2.4a2.081,2.081,0,0,1,.957-.409.676.676,0,0,1,.759.582.655.655,0,0,1,0,.133v2.144c0,.281-.166.281-.4.281h-.151v.166h1.723Z" transform="translate(-470.461 -1662.445)" fill="#211e1f"/>
      <path id="Shape-2" d="M487.386,1685.627h0a1.678,1.678,0,0,1-1.18-.525,1.661,1.661,0,0,1-.455-1.211c0-1.737,1.208-2.118,1.674-2.118a1.277,1.277,0,0,1,1.4,1.143c0,.044.006.089.006.134v.153h-2.413a2.894,2.894,0,0,0,0,.485,1.374,1.374,0,0,0,1.276,1.43,1.614,1.614,0,0,0,1.123-.549l.115.115A1.955,1.955,0,0,1,487.386,1685.627Zm.014-3.663h.025c-.49.011-.83.364-.932.97h1.379c.23,0,.23-.1.23-.2a.7.7,0,0,0-.635-.763l-.041,0H487.4Z" transform="translate(-473.576 -1662.47)" fill="#211e1f"/>
      <path id="Path-4" d="M491.868,1685.227h-.23v.163H493.8v-.215h-.46c-.24,0-.408,0-.408-.281v-1.9a.7.7,0,0,1,.613-.689c.293,0,.293.2.549.2a.4.4,0,0,0,.385-.406v-.015a.447.447,0,0,0-.445-.448H494c-.5,0-.855.537-1.06.856h0v-.74c0-.09,0-.115-.076-.115s-.408.217-1.021.473v.128c.128,0,.433.115.433.37v2.336C492.263,1685.227,492.1,1685.227,491.868,1685.227Z" transform="translate(-476.142 -1662.414)" fill="#211e1f"/>
      <path id="Path-5" d="M498.245,1685.26a1.11,1.11,0,0,1-1.046-1.02h-.153l.1.944a2.142,2.142,0,0,0,1.01.293c.983,0,1.43-.587,1.43-1.136,0-1.276-1.928-1.01-1.928-1.978a.587.587,0,0,1,.621-.551l.029,0a.866.866,0,0,1,.906.818h.217l-.063-.843a2.159,2.159,0,0,0-.945-.24,1.136,1.136,0,0,0-1.269.984c0,.029-.006.057-.007.086,0,1.276,1.812,1.021,1.812,2a.6.6,0,0,1-.715.638Z" transform="translate(-478.499 -1662.37)" fill="#211e1f"/>
      <path id="Path-6" d="M510.655,1683.517l.192-1.212h-.192a1.7,1.7,0,0,1-1.672,1.443,2.706,2.706,0,0,1-2.476-2.885,2.361,2.361,0,0,1,2.063-2.625,2.188,2.188,0,0,1,.272-.017,1.6,1.6,0,0,1,1.787,1.366h.2l-.09-1.187a5.872,5.872,0,0,0-1.953-.448,3.063,3.063,0,0,0-3.153,2.933,2.961,2.961,0,0,0,2.783,3.129,3.111,3.111,0,0,0,.395,0,4.7,4.7,0,0,0,1.838-.5Z" transform="translate(-482.243 -1660.806)" fill="#211e1f"/>
      <path id="Path-7" d="M517.209,1683.382v-.217h-.14c-.24,0-.421,0-.421-.281v-5.859a.277.277,0,0,0-.179.089,4.77,4.77,0,0,1-.855.358v.141c.306.089.433.1.433.651v4.62c0,.281-.166.281-.4.281h-.165v.217Z" transform="translate(-486.538 -1660.403)" fill="#211e1f"/>
      <path id="Path-8" d="M519.072,1682.544v2.132a.893.893,0,0,0,.786.989.821.821,0,0,0,.12.006,2.245,2.245,0,0,0,1.481-.7v.676h0a8.715,8.715,0,0,1,1.2-.267v-.141h-.268c-.14,0-.24,0-.24-.153v-3.216s-.551.064-1.279.115v.153c.294.077.69.179.69.332v2.247a1.874,1.874,0,0,1-1,.5c-.728,0-.728-.715-.728-.957v-2.146c0-.179,0-.24-.09-.24l-1.073.064v.153C519.072,1682.124,519.072,1682.327,519.072,1682.544Z" transform="translate(-487.928 -1662.514)" fill="#211e1f"/>
      <path id="Shape-3" d="M527.677,1683.614h0a2.449,2.449,0,0,1-1.149-.294l-.255.192-.166-.089a9.615,9.615,0,0,0,.115-1.531v-3.576c0-.491-.121-.522-.447-.6l-.038-.009v-.14a4.093,4.093,0,0,0,.855-.358l.192-.089c.064,0,.064.113.064.115v3.051a2.118,2.118,0,0,1,1.277-.6,1.623,1.623,0,0,1,1.547,1.694c0,.019,0,.037,0,.056A2.115,2.115,0,0,1,527.677,1683.614Zm0-3.536a1.279,1.279,0,0,0-.792.4l-.065,2.017a.888.888,0,0,0,.856.855c.877,0,1.276-.84,1.276-1.621a1.586,1.586,0,0,0-1.276-1.647Z" transform="translate(-491.006 -1660.443)" fill="#211e1f"/>
      <path id="Path-9" d="M464.857,1691.577h-.663v.179h.089c.166,0,.306,0,.319.24v2.361c0,.229-.153.24-.319.24h-.115v.217h1.379v-.161h-.039c-.166,0-.319,0-.319-.24v-2.44c0-.229.153-.24.319-.24h.09v-.181h0Z" transform="translate(-464.168 -1666.735)" fill="#211e1f"/>
      <path id="Path-10" d="M470.031,1691.567h-.639v.179h.115c.141,0,.37,0,.385.408v1.659l-1.994-2.233h-.944v.179h.077a.385.385,0,0,1,.4.374v1.924c0,.358-.089.551-.4.551h-.1v.2h1.2v-.168h-.1c-.332,0-.4-.115-.408-.51v-1.876l2.3,2.552h.217v-2.553c0-.523.2-.549.385-.549h.09v-.179h0Z" transform="translate(-465.372 -1666.725)" fill="#211e1f"/>
      <path id="Path-11" d="M476.7,1691.3h0c0,.115-.1.115-.23.115H474.11c-.115,0-.191,0-.23-.115h-.14a3.364,3.364,0,0,1,0,.37v.385h.179c.076-.334.076-.4.408-.4h.715v2.4c0,.345-.1.345-.357.357h-.1v.293h1.493v-.166h-.1c-.217,0-.357,0-.357-.37v-2.464h.715c.293,0,.306.24.319.421h0l.168-.064h0v-.74h-.13Z" transform="translate(-468.34 -1666.626)" fill="#211e1f"/>
      <path id="Path-12" d="M481.9,1693.981h0c-.129.511-.357.537-.893.537-.293,0-.536,0-.536-.281V1693.2H481c.306,0,.306.166.332.433h.166v-1.045h-.179c0,.24-.076.37-.332.385h-.524v-1.15h.613c.46,0,.5.217.523.51h.153v-.715h-2.285v.179h.077c.164,0,.308,0,.319.242v2.361c0,.23-.153.24-.319.24h-.077v.2h2.476a3.729,3.729,0,0,1,.153-.715h-.14Z" transform="translate(-470.836 -1666.765)" fill="#211e1f"/>
      <path id="Shape-4" d="M485.826,1694.822H484.4v-.24h.1c.186,0,.306-.1.306-.235v-2.3c0-.318-.168-.318-.306-.318h-.1v-.179h1.429c.729,0,1.1.275,1.1.818a.851.851,0,0,1-.625.8l.765,1.135a.473.473,0,0,0,.455.345h.018v.164l-.5-.074h-.433a12.465,12.465,0,0,1-.945-1.455h-.268v1.021c.012.345.144.345.358.345h.076Zm-.446-3.015v1.277h.2c.406,0,.676-.117.676-.689a.587.587,0,0,0-.584-.589h-.052Z" transform="translate(-472.986 -1666.735)" fill="#211e1f"/>
      <path id="Path-13" d="M493.762,1691.731v-.179h-1.2v.179h.115c.14,0,.371,0,.385.408v1.659l-2.019-2.233H490.1v.179h.077a.385.385,0,0,1,.4.374v1.91c0,.37-.089.562-.4.562H490.1v.23h1.2v-.166h-.1c-.332,0-.4-.115-.4-.51v-1.876l2.285,2.552h.217v-2.553c0-.523.2-.549.385-.549h.09Z" transform="translate(-475.471 -1666.735)" fill="#211e1f"/>
      <path id="Shape-5" d="M497.83,1694.751H496.8v-.232a.4.4,0,0,0,.385-.281l.714-2.079a4.349,4.349,0,0,0,.178-.574,1.863,1.863,0,0,0,.421-.192v.115l.829,2.374c.016.039.035.079.054.119a.869.869,0,0,1,.111.34.283.283,0,0,0,.142.241.293.293,0,0,0,.14.037.284.284,0,0,0,.14-.037v.164l-.614,0h-.688v-.165h.063c.13,0,.269-.031.269-.115a1.427,1.427,0,0,0-.09-.319l-.179-.51h-.995l-.142.46a2.871,2.871,0,0,0-.1.344.122.122,0,0,0,.105.123.83.83,0,0,0,.213.018h.077v.167Zm.217-2.693-.4,1.21h.791Z" transform="translate(-478.391 -1666.666)" fill="#211e1f"/>
      <path id="Path-14" d="M504.554,1691.3h0c0,.115-.1.115-.23.115h-2.347c-.117,0-.206,0-.231-.115h-.154a1.765,1.765,0,0,1,0,.37v.4h.179c.062-.333.062-.4.4-.4h.728v2.4c0,.345-.115.345-.357.357h-.115v.281h1.506v-.166h-.1c-.217,0-.357,0-.357-.37v-2.464h.728c.28,0,.293.24.306.421h0l.167-.064h0a3.679,3.679,0,0,1,0-.371v-.37h-.129Z" transform="translate(-480.482 -1666.626)" fill="#211e1f"/>
      <path id="Path-15" d="M508.039,1691.577h-.676v.179h.077c.166,0,.319,0,.319.24v2.361c0,.229-.153.24-.319.24h-.077v.217h1.379v-.161h-.089c-.166,0-.307,0-.307-.24v-2.44c0-.229.14-.24.307-.24h.089v-.181h0Z" transform="translate(-482.997 -1666.735)" fill="#211e1f"/>
      <path id="Shape-6" d="M511.629,1694.766a1.619,1.619,0,0,1-1.62-1.62v-.029a1.681,1.681,0,0,1,.49-1.194,1.661,1.661,0,0,1,1.183-.491h.011c.052,0,.1-.007.154-.007a1.609,1.609,0,0,1,1.609,1.59,1.684,1.684,0,0,1-1.616,1.748h-.121Zm.064-3.091c-.936,0-1.01.987-1.01,1.29,0,1.033.366,1.557,1.086,1.557.678,0,1.008-.46,1.008-1.4C512.78,1692.418,512.4,1691.675,511.693,1691.675Z" transform="translate(-484.151 -1666.68)" fill="#211e1f"/>
      <path id="Path-16" d="M519.971,1691.731v-.179h-1.187v.179h.115c.128,0,.37,0,.37.408v1.659l-1.991-2.233h-.932v.179h.076a.37.37,0,0,1,.385.355.261.261,0,0,1,0,.029v1.912c0,.357-.089.549-.385.549h-.076v.23h1.2v-.166h-.09c-.345,0-.4-.115-.409-.51v-1.876l2.285,2.552h.2a2.565,2.565,0,0,1,0-.447v-2.106c0-.523.192-.549.385-.549h.089Z" transform="translate(-486.913 -1666.735)" fill="#211e1f"/>
      <path id="Shape-7" d="M524.033,1694.751H523v-.232a.393.393,0,0,0,.369-.281l.729-2.079a4.411,4.411,0,0,0,.178-.574,2.078,2.078,0,0,0,.407-.192v.115l.832,2.374c.045.145.1.3.166.459a.268.268,0,0,0,.269.254.261.261,0,0,0,.076-.011v.164h-1.3v-.163h.064c.118,0,.255-.031.255-.115a1.576,1.576,0,0,0-.089-.319l-.166-.51h-.83l-.139.46a1.565,1.565,0,0,0-.1.344.121.121,0,0,0,.1.123.844.844,0,0,0,.217.018v.167Zm.2-2.693-.409,1.21h.791Z" transform="translate(-489.813 -1666.666)" fill="#211e1f"/>
      <path id="Path-17" d="M531.11,1693.939h0a.975.975,0,0,1-.14.319.651.651,0,0,1-.419.228h-.589a.226.226,0,0,1-.254-.193.2.2,0,0,1,0-.048v-2.285c0-.23.115-.23.281-.23h.14v-.179h-1.4v.179h.077c.166,0,.319,0,.319.241v2.325c0,.267-.153.281-.319.281h-.077v.24h2.387a4.139,4.139,0,0,1,.166-.765h-.166Z" transform="translate(-492.308 -1666.735)" fill="#211e1f"/>
      <path id="Shape-8" d="M532.607,1692.316a.472.472,0,1,1-.013-.945h.028a.45.45,0,0,1,.318.129.456.456,0,0,1,.139.344.473.473,0,0,1-.467.472Zm-.013-.893a.385.385,0,1,0,.385.385.385.385,0,0,0-.385-.385Z" transform="translate(-493.792 -1666.656)" fill="#211e1f"/>
      <path id="Shape-9" d="M532.987,1692.24H532.9c-.034,0-.062-.043-.1-.1-.022-.033-.047-.072-.078-.112v.154h-.128v-.422h.24c.106,0,.168.048.168.128a.14.14,0,0,1-.114.14v.1l.1.111Z" transform="translate(-493.994 -1666.824)" fill="#211e1f"/>
      <path id="Path-18" d="M492.875,1663.632a8.36,8.36,0,0,0,8.4-7.964,8.207,8.207,0,0,0-8.3-8.109l-.094,0h-3.829a7.914,7.914,0,0,0-8.095,7.729c0,.126,0,.252,0,.378a8.054,8.054,0,0,0,8.095,7.964Z" transform="translate(-471.483 -1647.558)" fill="#0779be"/>
      <path id="Shape-10" d="M489.758,1663.446a7.352,7.352,0,1,1,7.352-7.352A7.352,7.352,0,0,1,489.758,1663.446Zm1.658-11.7v8.7a4.658,4.658,0,0,0,0-8.7Zm-3.331,0a4.665,4.665,0,0,0,0,8.7Z" transform="translate(-472.118 -1648.074)" fill="#fff"/>
      <path id="Path-19" d="M492.875,1663.632a8.36,8.36,0,0,0,8.4-7.964,8.207,8.207,0,0,0-8.3-8.109l-.094,0h-3.829a7.914,7.914,0,0,0-8.095,7.729c0,.126,0,.252,0,.378a8.054,8.054,0,0,0,8.095,7.964Z" transform="translate(-471.483 -1647.558)" fill="#000007"/>
      <path id="Shape-11" d="M489.758,1663.446a7.352,7.352,0,1,1,7.352-7.352A7.352,7.352,0,0,1,489.758,1663.446Zm1.658-11.7v8.7a4.658,4.658,0,0,0,0-8.7Zm-3.331,0a4.665,4.665,0,0,0,0,8.7Z" transform="translate(-472.118 -1648.074)" fill="#fff"/>
    </g>
  </g>
</svg>
