<svg xmlns="http://www.w3.org/2000/svg" width="78" height="52" viewBox="0 0 78 52">
  <g id="Group_2102" data-name="Group 2102" transform="translate(-0.5)">
    <rect id="Rectangle_1294" data-name="Rectangle 1294" width="78" height="52" rx="5" transform="translate(0.5)" fill="#f5f5f5"/>
    <g id="ELO" transform="translate(23.283 9.495)">
      <path id="Caminho_3920" data-name="Caminho 3920" d="M57.422,1644.152a15.988,15.988,0,1,1-15.988,15.988h0a15.988,15.988,0,0,1,15.988-15.988Z" transform="translate(-41.434 -1644.152)" fill="#000007" stroke="#17100d" stroke-miterlimit="22.926" stroke-width="0.567" fill-rule="evenodd"/>
      <path id="Caminho_3921" data-name="Caminho 3921" d="M53.8,1664.9a4.914,4.914,0,0,1,4.777,3.759l-1.98.865v0l-2.026.89-4.86,2.125a4.914,4.914,0,0,1,4.09-7.636Zm2.109,3.055L51,1670.071q-.012-.127-.012-.257a2.811,2.811,0,0,1,4.92-1.858Z" transform="translate(-44.684 -1653.196)" fill="#fff" fill-rule="evenodd"/>
      <path id="Caminho_3922" data-name="Caminho 3922" d="M58.947,1678.677a4.872,4.872,0,0,1-6.131.592l1.154-1.757a2.87,2.87,0,0,0,3.506-.339l1.469,1.5Z" transform="translate(-46.395 -1658.546)" fill="#fff" fill-rule="evenodd"/>
      <path id="Caminho_3923" data-name="Caminho 3923" d="M67.222,1670.5l-.012-9.291h1.761v9.041a.185.185,0,0,0,.124.207l1.532.6-.69,1.793-1.794-.759c-.68-.288-.919-.705-.92-1.587Z" transform="translate(-52.67 -1651.589)" fill="#fff" fill-rule="evenodd"/>
      <path id="Caminho_3924" data-name="Caminho 3924" d="M81.678,1675.385a4.857,4.857,0,0,1-7.688-5.667l1.833.972a2.784,2.784,0,0,0,4.466,3.156l1.389,1.539Z" transform="translate(-55.414 -1655.297)" fill="#fff" fill-rule="evenodd"/>
      <path id="Caminho_3925" data-name="Caminho 3925" d="M79.507,1664.719a4.857,4.857,0,0,1,4.4,6.92l-1.834-.973a2.784,2.784,0,0,0-4.441-3.146l-1.389-1.539a4.838,4.838,0,0,1,3.27-1.265Z" transform="translate(-56.606 -1653.116)" fill="#fff" fill-rule="evenodd"/>
    </g>
  </g>
</svg>
