<svg xmlns="http://www.w3.org/2000/svg" width="113.12" height="39.282" viewBox="0 0 113.12 39.282">
  <g id="Group_2121" data-name="Group 2121" transform="translate(-503.88 -6090)">
    <g id="Group_2119" data-name="Group 2119" transform="translate(0 7.44)">
      <path id="Path_139" data-name="Path 139" d="M1475.492,1365.984a3.753,3.753,0,0,1-3.7-3.939v-.029a3.721,3.721,0,0,1,3.582-3.937c2.117,0,3.465,1.746,3.465,3.908a.368.368,0,0,1-.354.341h-5.922a3,3,0,0,0,2.961,2.976,3.34,3.34,0,0,0,2.443-1.038.32.32,0,0,1,.236-.1.335.335,0,0,1,.236.592,3.834,3.834,0,0,1-2.945,1.23m2.562-4.309c-.1-1.525-.977-2.931-2.709-2.931a2.941,2.941,0,0,0-2.783,2.931Z" transform="translate(-915.828 4741.65)" fill="#000004"/>
      <path id="Path_140" data-name="Path 140" d="M1489.236,1365.532a.355.355,0,0,1-.355.372.36.36,0,0,1-.371-.372v-1.1a2.954,2.954,0,0,1-2.724,1.585,2.875,2.875,0,0,1-3.019-3.11V1358.6a.345.345,0,0,1,.354-.369.358.358,0,0,1,.37.369v4.175a2.307,2.307,0,0,0,2.4,2.577,2.589,2.589,0,0,0,2.62-2.7V1358.6a.346.346,0,0,1,.355-.369.358.358,0,0,1,.371.369Z" transform="translate(-918.528 4741.611)" fill="#000004"/>
      <path id="Path_141" data-name="Path 141" d="M1493.526,1358.81a1.125,1.125,0,1,1,2.25,0v.355c.326-.768.859-1.481,1.525-1.481a1.087,1.087,0,0,1,.251,2.147c-1.139.268-1.776,1.141-1.776,2.74v2.1a1.125,1.125,0,1,1-2.25,0Z" transform="translate(-921.174 4741.747)" fill="#000004"/>
      <path id="Path_142" data-name="Path 142" d="M1504.091,1365.868a3.97,3.97,0,0,1-4.146-4.1v-.031a3.95,3.95,0,0,1,3.924-4.129,3.751,3.751,0,0,1,3.82,3.819,1.026,1.026,0,0,1-1.051,1.081h-4.457a1.84,1.84,0,0,0,1.94,1.555,2.585,2.585,0,0,0,1.6-.533.85.85,0,0,1,.549-.177.86.86,0,0,1,.873.887.882.882,0,0,1-.3.667,4.107,4.107,0,0,1-2.754.962m1.45-4.768a1.7,1.7,0,0,0-1.672-1.687,1.769,1.769,0,0,0-1.718,1.687Z" transform="translate(-922.753 4741.766)" fill="#000004"/>
      <path id="Path_143" data-name="Path 143" d="M1511,1361.767v-.031a4.074,4.074,0,0,1,4.161-4.13,3.972,3.972,0,0,1,2.709.889.989.989,0,0,1,.354.768,1.011,1.011,0,0,1-1.02,1.009,1.055,1.055,0,0,1-.651-.223,2.152,2.152,0,0,0-1.408-.5,2.027,2.027,0,0,0-1.924,2.161v.029a2.034,2.034,0,0,0,2.013,2.192,2.281,2.281,0,0,0,1.482-.548,1.039,1.039,0,0,1,.606-.208.954.954,0,0,1,.621,1.673,3.9,3.9,0,0,1-2.813,1.022,4.052,4.052,0,0,1-4.13-4.1" transform="translate(-925.471 4741.767)" fill="#000004"/>
      <path id="Path_144" data-name="Path 144" d="M1521.7,1354.947a1.278,1.278,0,0,1,2.516,0v.029a1.275,1.275,0,0,1-2.516,0Zm.133,2.931a1.125,1.125,0,1,1,2.251,0v5.863a1.125,1.125,0,1,1-2.251,0Z" transform="translate(-928.103 4742.679)" fill="#000004"/>
      <path id="Path_145" data-name="Path 145" d="M1526.175,1361.767v-.031a4.074,4.074,0,0,1,4.16-4.13,3.972,3.972,0,0,1,2.709.889.993.993,0,0,1,.355.768,1.012,1.012,0,0,1-1.021,1.009,1.06,1.06,0,0,1-.651-.223,2.147,2.147,0,0,0-1.407-.5,2.027,2.027,0,0,0-1.924,2.161v.029a2.033,2.033,0,0,0,2.013,2.192,2.282,2.282,0,0,0,1.481-.548,1.046,1.046,0,0,1,.606-.208.955.955,0,0,1,.622,1.673,3.9,3.9,0,0,1-2.812,1.022,4.051,4.051,0,0,1-4.131-4.1" transform="translate(-929.204 4741.767)" fill="#000004"/>
      <path id="Path_146" data-name="Path 146" d="M1537.052,1355a1.125,1.125,0,1,1,2.25,0v8.735a1.125,1.125,0,1,1-2.25,0Z" transform="translate(-931.879 4742.684)" fill="#000004"/>
      <path id="Path_147" data-name="Path 147" d="M1541.351,1361.767v-.031a4.165,4.165,0,0,1,4.308-4.13,4.123,4.123,0,0,1,4.278,4.1v.029a4.3,4.3,0,0,1-8.586.031m6.366,0v-.031a2.109,2.109,0,0,0-2.087-2.19,2.032,2.032,0,0,0-2.058,2.161v.029a2.108,2.108,0,0,0,2.086,2.192,2.032,2.032,0,0,0,2.058-2.161" transform="translate(-932.937 4741.767)" fill="#000004"/>
    </g>
    <g id="Group_2120" data-name="Group 2120" transform="translate(0 6)">
      <path id="Path_148" data-name="Path 148" d="M1503.779,1303.708a3,3,0,1,1-3-3,3,3,0,0,1,3,3" transform="translate(-980.181 4799.007)" fill="#000004"/>
      <path id="Path_149" data-name="Path 149" d="M1520.885,1303.708a3,3,0,1,1-3-3,3,3,0,0,1,3,3" transform="translate(-988.31 4799.007)" fill="#000004"/>
      <path id="Path_150" data-name="Path 150" d="M1515.911,1313l-3.519-4.615a.749.749,0,0,0-1.25,0l-3.568,4.626c-.345.447-.166.813.4.813l1.571,0a15.2,15.2,0,0,1-29.364-3.919,2.04,2.04,0,1,0-4.063.375,19.283,19.283,0,0,0,31.234,13.27,18.9,18.9,0,0,0,6.493-9.58l-.032.145h.031l1.662-.147C1516.073,1313.961,1516.255,1313.446,1515.911,1313Z" transform="translate(-969.881 4795.522)" fill="#000004"/>
      <path id="Path_151" data-name="Path 151" d="M1512.1,1286.45a19.559,19.559,0,0,0-18.031-15.655c-8.611-.525-17.058,4.969-20.228,12.1h-1.627c-.574,0-.757.477-.406.924l3.626,4.681a.767.767,0,0,0,1.27.025l3.577-4.714c.349-.449.163-.917-.41-.917h-1.4a17.089,17.089,0,0,1,15.345-8.024,15.4,15.4,0,0,1,14.213,12.318,2.087,2.087,0,0,0,2.43,1.636A2.025,2.025,0,0,0,1512.1,1286.45Z" transform="translate(-967.754 4813.24)" fill="#000004"/>
    </g>
  </g>
</svg>
