<svg xmlns="http://www.w3.org/2000/svg" width="34.098" height="34.099" viewBox="0 0 34.098 34.099">
  <g id="Group_2098" data-name="Group 2098" transform="translate(-332.25 -5826.243)">
    <circle id="Ellipse_33" data-name="Ellipse 33" cx="16.299" cy="16.299" r="16.299" transform="translate(333 5826.993)" fill="none" stroke="#000007" stroke-linecap="round" stroke-linejoin="round" stroke-width="1.5"/>
    <path id="Path_136" data-name="Path 136" d="M576.918,1546.377v4.873a.8.8,0,0,0,.8.8h1.809a.8.8,0,0,0,.8-.8v-7.525a.138.138,0,0,1,.138-.139h2.205a.565.565,0,0,0,.561-.493l.28-2.167a.566.566,0,0,0-.561-.638h-2.485a.138.138,0,0,1-.138-.138v-1.967c0-.955.265-1.606,1.634-1.606h1.068a.679.679,0,0,0,.679-.679v-1.653a.677.677,0,0,0-.626-.677c-.483-.036-1.168-.071-1.919-.071a3.974,3.974,0,0,0-4.242,4.36v2.294a.138.138,0,0,1-.138.138h-2.1a.607.607,0,0,0-.608.608v2.083a.607.607,0,0,0,.608.608h2.1" transform="translate(-229.071 4300.497)" fill="none" stroke="#000007" stroke-linecap="round" stroke-linejoin="round" stroke-width="1.5"/>
  </g>
</svg>
