<svg xmlns="http://www.w3.org/2000/svg" width="86.895" height="35.691" viewBox="0 0 86.895 35.691">
  <g id="Group_2067" data-name="Group 2067" transform="translate(-481.011 -227.907)">
    <path id="Path_545" data-name="Path 545" d="M724.139,320.588a3.617,3.617,0,0,0-1.413-2.531,7.8,7.8,0,0,0-8.389-.47,7.154,7.154,0,0,0-2.468,2.473c-.211-.779-.389-1.457-.578-2.133a.842.842,0,0,0-1.169-.68c-1.457.34-2.913.687-4.369,1.032-.7.165-.864.377-.864,1.121q0,7.637,0,15.275c0,.983.377,1.367,1.352,1.369q2.225.005,4.449,0c1.037,0,1.4-.367,1.4-1.409,0-2.125-.006-4.251,0-6.376a16.26,16.26,0,0,1,.951-6.121,4.493,4.493,0,0,1,3.186-3.077,1.452,1.452,0,0,1,1.957,1.419,3.038,3.038,0,0,0,2.547,2.992A2.706,2.706,0,0,0,724.139,320.588Z" transform="translate(-200.662 -79.487)" fill="#fff"/>
    <path id="Path_546" data-name="Path 546" d="M498.612,313.868a8.5,8.5,0,0,0-10.191-.594c-.258.173-.528.33-.782.488-.048-.057-.062-.067-.066-.08-.069-.233-.138-.467-.2-.7-.1-.355-.215-.542-.413-.61a.88.88,0,0,0-.431-.009l-2.976-.061a5.928,5.928,0,0,0-1.2-.024h-.007a3.553,3.553,0,0,0-.432.066l-.012,0a1.174,1.174,0,0,0-.884,1.156v24.51l.826.826h5.6a1.336,1.336,0,0,0,.8-1.4c-.019-1.987-.007-3.975-.007-5.963v-.557c.214.069.368.129.527.167a14.058,14.058,0,0,0,2.356.535c3.841.232,6.972-1.1,9.012-4.47a11.491,11.491,0,0,0,1.387-7.962A8.644,8.644,0,0,0,498.612,313.868Zm-5.134,13.771a6.055,6.055,0,0,1-.808,1.627,1.842,1.842,0,0,1-3.264-.159,7.328,7.328,0,0,1-.928-3,29.287,29.287,0,0,1,.164-9.167,7.12,7.12,0,0,1,.807-2.168,1.816,1.816,0,0,1,3.155-.2,6.3,6.3,0,0,1,1.24,3.253C494.281,321.066,494.523,324.485,493.478,327.64Z" transform="translate(0 -75.241)" fill="#fff"/>
    <path id="Path_547" data-name="Path 547" d="M1052.276,261.128a1.048,1.048,0,0,0-1.044.953l-.143,1.566h0c-.407,2.479-.535,4.02-4.138,5.091-.9.268-1.106.963-1.024,1.848,0,0,0,.248,0,.33v.067l-.005.745a2.079,2.079,0,0,0,2.079,2.093h1.276a.621.621,0,0,1,.621.621h0c0,2.279-.011,1.909-.007,3.446v4.6a3.753,3.753,0,0,0,.131.983l.1.358a2.553,2.553,0,0,0,.509.987,6.207,6.207,0,0,0,.726.717,5.384,5.384,0,0,0,5.494.61,5.2,5.2,0,0,0,2.507-1.868,3.665,3.665,0,0,0,.447-1.423h0a1.376,1.376,0,0,0-.461-1.282c-.35-.232-1.137.262-1.779.524-.568.232-.87-.356-.932-.494a.139.139,0,0,1-.012-.047q-.023-.32-.024-.642v-5.93a2.35,2.35,0,0,1,2.347-2.351h5.661a1.536,1.536,0,0,1,1.536,1.536v8.342c0,2.3,1.459,4.167,3.764,4.163a8.328,8.328,0,0,0,2.772-.246,2.152,2.152,0,0,0,1.547-1.351.19.19,0,0,0,0-.046.75.75,0,0,0-.752-.726.731.731,0,0,1-.728-.731v-11.22a3.834,3.834,0,0,0-3.834-3.834l-15.06,0a.278.278,0,0,1-.149-.513c2.5-1.6,2.411-2.806,2.436-3.895v-2.077a.911.911,0,0,0-.911-.911Z" transform="translate(-506.322 -29.776)" fill="#fff"/>
    <path id="Path_548" data-name="Path 548" d="M1241.863,236.9l1.737-1.055h0l.109-.066h0l2.3-1.4,1.561-.948a1.842,1.842,0,0,0,.827-1.085,1.767,1.767,0,0,0,.07-.5v-3.455a.486.486,0,0,0-.776-.39l-5.689,4.2a2.488,2.488,0,0,0-1,1.994v.852h0v1.366A.567.567,0,0,0,1241.863,236.9Z" transform="translate(-681.182)" fill="#fff"/>
    <path id="Path_549" data-name="Path 549" d="M863.972,334.4a1.1,1.1,0,0,0-1.487.1c-.268.255-.9.407-1.129-.009a4.01,4.01,0,0,1-.2-1.8c-.029-2.155.1-4.316-.061-6.46a7.9,7.9,0,0,0-.141-1.021h.01a6.84,6.84,0,0,0-3.325-4.591,10.175,10.175,0,0,0-3.423-1.25,18.43,18.43,0,0,0-4.871-.062c-.341.036-.682.1-.639.539.082.836.9,2,1.669,1.739a4.821,4.821,0,0,1,2.493-.086,1.842,1.842,0,0,1,.829.571,1.917,1.917,0,0,1,.4,1.612l0,.008a2.7,2.7,0,0,1-1.746,1.9,31.615,31.615,0,0,1-3.7,1.3c-1.882.529-4.006.928-5.353,2.477A6.041,6.041,0,0,0,842.75,336c1.307,2.364,3.856,2.973,6.38,2.649a5.935,5.935,0,0,0,4.086-2.191c.09-.114.174-.233.253-.354l.232-.285a.7.7,0,0,1,1.127.07l.134.214a6.2,6.2,0,0,0,1.194,1.624,3.61,3.61,0,0,0,1.681.9,4.666,4.666,0,0,0,3-.227,5.144,5.144,0,0,0,1.328-.827,6.972,6.972,0,0,0,1.748-2.329C864.046,334.953,864.252,334.67,863.972,334.4Zm-9.833-3.448a12.428,12.428,0,0,1-.546,2.68,3.8,3.8,0,0,1-.664,1.237,2.466,2.466,0,0,1-3.919-.29,4.5,4.5,0,0,1,1.8-6.489c.6-.273,1.224-.52,1.806-.836.323-.175.633-.374.955-.586a.47.47,0,0,1,.729.389v0c-.005.322-.009.644-.014.965-.01.644-.024,1.288-.062,1.931C854.2,330.292,854.173,330.624,854.139,330.956Z" transform="translate(-323.568 -81.806)" fill="#fff"/>
  </g>
</svg>
