<svg xmlns="http://www.w3.org/2000/svg" width="78" height="52" viewBox="0 0 78 52">
  <g id="Group_2101" data-name="Group 2101" transform="translate(0)">
    <rect id="Rectangle_1296" data-name="Rectangle 1296" width="78" height="52" rx="5" transform="translate(0)" fill="#f5f5f5"/>
    <g id="MASTERCARD" transform="translate(19.217 9.495)">
      <path id="Caminho_3931" data-name="Caminho 3931" d="M258.68,1697.05v-2.122a1.245,1.245,0,0,0-1.137-1.344,1.331,1.331,0,0,0-.209,0,1.4,1.4,0,0,0-1.2.6,1.238,1.238,0,0,0-1.132-.6,1.143,1.143,0,0,0-.991.5v-.425h-.742v3.4h.743v-1.875c0-.6.318-.884.813-.884s.743.318.743.884v1.875h.743v-1.875a.783.783,0,0,1,.672-.879.791.791,0,0,1,.141-.005c.495,0,.742.318.742.884v1.875Zm11-3.4h-1.2v-1.026h-.742v1.026h-.674v.673h.674v1.553c0,.778.318,1.238,1.167,1.238a1.977,1.977,0,0,0,.919-.248l-.212-.636a1.162,1.162,0,0,1-.637.177c-.354,0-.5-.212-.5-.566v-1.521h1.2v-.669Zm6.3-.071a1,1,0,0,0-.884.5v-.424h-.743v3.4h.743v-1.91c0-.566.248-.885.707-.885a2.039,2.039,0,0,1,.46.071l.212-.707a2.269,2.269,0,0,0-.495-.036Zm-9.515.354a2.429,2.429,0,0,0-1.379-.354c-.85,0-1.415.425-1.415,1.1,0,.566.424.885,1.167.99l.354.036c.389.07.6.177.6.354,0,.248-.283.425-.778.425a1.952,1.952,0,0,1-1.132-.354l-.354.566a2.5,2.5,0,0,0,1.45.424c.991,0,1.556-.46,1.556-1.1,0-.6-.46-.92-1.167-1.026l-.354-.035c-.318-.036-.566-.106-.566-.318,0-.248.247-.389.637-.389a2.558,2.558,0,0,1,1.061.283l.319-.6Zm19.738-.354a1,1,0,0,0-.884.5v-.424h-.742v3.4h.742v-1.91c0-.566.248-.885.707-.885a2.045,2.045,0,0,1,.46.071l.213-.707a2.278,2.278,0,0,0-.5-.036Zm-9.48,1.768a1.7,1.7,0,0,0,1.625,1.771q.09,0,.179,0a1.761,1.761,0,0,0,1.2-.389l-.354-.6a1.432,1.432,0,0,1-.884.318,1,1,0,0,1-1.03-.978.94.94,0,0,1,0-.119,1.042,1.042,0,0,1,.988-1.095h.037a1.431,1.431,0,0,1,.884.318l.354-.6a1.758,1.758,0,0,0-1.2-.389,1.7,1.7,0,0,0-1.8,1.589,1.721,1.721,0,0,0,0,.179Zm6.863,0v-1.7h-.743v.425a1.279,1.279,0,0,0-1.062-.5,1.77,1.77,0,0,0,0,3.537,1.192,1.192,0,0,0,1.062-.5v.424h.743Zm-2.724,0a1.028,1.028,0,0,1,2.052-.14,1.171,1.171,0,0,1,0,.14,1.028,1.028,0,0,1-2.052.141A.973.973,0,0,1,280.858,1695.351Zm-8.878-1.768a1.77,1.77,0,0,0,.035,3.537,2.169,2.169,0,0,0,1.38-.46l-.354-.529a1.693,1.693,0,0,1-.991.354.954.954,0,0,1-1.026-.813h2.511v-.282a1.563,1.563,0,0,0-1.556-1.8Zm0,.636a.829.829,0,0,1,.849.806v.008H271.06A.9.9,0,0,1,271.98,1694.219Zm18.429,1.132v-3.042h-.743v1.769a1.279,1.279,0,0,0-1.062-.5,1.77,1.77,0,0,0,0,3.537,1.192,1.192,0,0,0,1.062-.5v.424h.743Zm-2.724,0a1.028,1.028,0,0,1,2.052-.14.971.971,0,0,1,0,.14,1.028,1.028,0,0,1-2.052.141A.973.973,0,0,1,287.685,1695.351Zm-24.831,0v-1.7h-.743v.425a1.277,1.277,0,0,0-1.061-.5,1.77,1.77,0,0,0,0,3.537,1.191,1.191,0,0,0,1.061-.5v.424h.743Zm-2.759,0a1.028,1.028,0,1,1,2.052-.133,1.043,1.043,0,0,1,0,.133,1.028,1.028,0,1,1-2.052.134A1.064,1.064,0,0,1,260.095,1695.351Z" transform="translate(-251.163 -1665.144)" fill="#060607"/>
      <rect id="Retângulo_347" data-name="Retângulo 347" width="11.142" height="20.02" transform="translate(15.052 2.724)" fill="#828282"/>
      <path id="Caminho_3932" data-name="Caminho 3932" d="M265.3,1656.886a12.768,12.768,0,0,1,4.846-10.01,12.734,12.734,0,1,0,0,20.02A12.713,12.713,0,0,1,265.3,1656.886Z" transform="translate(-249.536 -1644.151)" fill="#6e6e6e"/>
      <path id="Caminho_3933" data-name="Caminho 3933" d="M306.714,1656.887a12.721,12.721,0,0,1-20.587,10.011,12.761,12.761,0,0,0,0-20.021,12.72,12.72,0,0,1,20.587,10.01Z" transform="translate(-265.486 -1644.153)" fill="#b2b2b2"/>
    </g>
  </g>
</svg>
