<svg xmlns="http://www.w3.org/2000/svg" width="79" height="52" viewBox="0 0 79 52">
  <g id="Group_2114" data-name="Group 2114" transform="translate(-0.5 0)">
    <g id="Group_2113" data-name="Group 2113" transform="translate(0 0)">
      <rect id="Rectangle_1289" data-name="Rectangle 1289" width="79" height="52" rx="5" transform="translate(0.5 0)" fill="#f5f5f5"/>
    </g>
    <g id="Group_2112" data-name="Group 2112" transform="translate(8.545 14.421)">
      <path id="Path_554" data-name="Path 554" d="M116.389,246.03a4.6,4.6,0,0,0,4.594-4.594V238.75a4.594,4.594,0,0,0-4.578-4.587l-3.727-.005a4.6,4.6,0,0,0-4.594,4.593v12.622a.389.389,0,1,0,.777,0V238.75a3.82,3.82,0,0,1,3.816-3.816l3.726.005a3.816,3.816,0,0,1,3.8,3.81v2.687a3.82,3.82,0,0,1-3.816,3.816h-5.266a.389.389,0,1,0,0,.777Z" transform="translate(-82.921 -230.629)" fill="#000007"/>
      <path id="Path_555" data-name="Path 555" d="M190.986,245.689a.389.389,0,1,0,.777,0V236.26a2.117,2.117,0,0,0-2.114-2.114h-1.617a.389.389,0,0,0,0,.777h1.617a1.338,1.338,0,0,1,1.337,1.337Z" transform="translate(-149.319 -230.62)" fill="#000007"/>
      <path id="Rectangle_1298" data-name="Rectangle 1298" d="M.985,0h0a.984.984,0,0,1,.984.984v0a.984.984,0,0,1-.984.984h0A.984.984,0,0,1,0,.985v0A.985.985,0,0,1,.985,0Z" transform="translate(40.647 1.392) rotate(-44.996)" fill="#000007"/>
      <path id="Path_556" data-name="Path 556" d="M226.978,234.872h1.6a2.7,2.7,0,0,1,1.924.8l3.75,3.75a1.632,1.632,0,0,0,2.309,0l3.736-3.736a2.7,2.7,0,0,1,1.924-.8h1.3a.389.389,0,1,0,0-.777h-1.3a3.475,3.475,0,0,0-2.473,1.024l-3.736,3.736a.855.855,0,0,1-1.209,0l-3.75-3.75a3.475,3.475,0,0,0-2.474-1.025h-1.6a.389.389,0,1,0,0,.777Z" transform="translate(-181.82 -230.577)" fill="#000007"/>
      <path id="Path_557" data-name="Path 557" d="M243.526,275.7h-1.3a2.7,2.7,0,0,1-1.924-.8l-3.736-3.736a1.632,1.632,0,0,0-2.309,0l-3.75,3.75a2.7,2.7,0,0,1-1.924.8h-1.6a.389.389,0,0,0,0,.777h1.6a3.475,3.475,0,0,0,2.474-1.025l3.75-3.75a.855.855,0,0,1,1.209,0l3.736,3.736a3.474,3.474,0,0,0,2.473,1.025h1.3a.389.389,0,1,0,0-.778Z" transform="translate(-181.82 -261.12)" fill="#000007"/>
      <path id="Path_558" data-name="Path 558" d="M-9.177,296.227l-3.076-3.076a.585.585,0,0,0-.808,0l-3.087,3.087a3,3,0,0,1-2.13.882h-.606l3.9,3.9a3.116,3.116,0,0,0,4.406,0l3.907-3.907h-.371A2.993,2.993,0,0,1-9.177,296.227Z" transform="translate(23.04 -279.727)" fill="#000007"/>
      <path id="Path_559" data-name="Path 559" d="M-16.149,228.76l3.087,3.088a.572.572,0,0,0,.808,0l3.076-3.076a2.994,2.994,0,0,1,2.13-.882h.37l-3.907-3.907a3.116,3.116,0,0,0-4.406,0l-3.9,3.9h.606A2.994,2.994,0,0,1-16.149,228.76Z" transform="translate(23.04 -221.376)" fill="#000007"/>
      <path id="Path_560" data-name="Path 560" d="M-26.766,257.412a.449.449,0,0,1-.168.034h-1.073a2.121,2.121,0,0,0-1.49.617l-3.076,3.076a1.472,1.472,0,0,1-1.044.432,1.473,1.473,0,0,1-1.044-.432l-3.087-3.087a2.121,2.121,0,0,0-1.49-.617h-1.32a.444.444,0,0,1-.159-.032l-2.37,2.37a3.116,3.116,0,0,0,0,4.406l2.37,2.37a.449.449,0,0,1,.159-.032h1.32a2.121,2.121,0,0,0,1.49-.617l3.087-3.087a1.512,1.512,0,0,1,2.088,0l3.076,3.076a2.121,2.121,0,0,0,1.49.617h1.073a.45.45,0,0,1,.168.034l2.361-2.361a3.116,3.116,0,0,0,0-4.406Z" transform="translate(44 -250.029)" fill="#000007"/>
      <path id="Path_561" data-name="Path 561" d="M126.244,330.976a3.019,3.019,0,0,0-.6.1l-.011-.066h-.106v1.521h.13v-.448a1.611,1.611,0,0,0,.463.07.953.953,0,0,0,.448-.1.529.529,0,0,0,.247-.489.581.581,0,0,0-.174-.472A.6.6,0,0,0,126.244,330.976Zm-.139,1.056a1.336,1.336,0,0,1-.45-.075v-.769a2.734,2.734,0,0,1,.578-.088c.291,0,.441.143.441.463C126.673,331.9,126.491,332.032,126.1,332.032Z" transform="translate(-97.477 -311.429)" fill="#000007"/>
      <path id="Path_562" data-name="Path 562" d="M136.141,331.095a1.1,1.1,0,0,0-.994,0,.542.542,0,0,0-.2.47.532.532,0,0,0,.2.467.846.846,0,0,0,.5.119.836.836,0,0,0,.5-.119h0a.652.652,0,0,0,0-.937Zm-.5.937c-.388,0-.558-.148-.558-.476s.172-.461.558-.461.555.15.555.478S136.028,332.032,135.645,332.032Z" transform="translate(-105.341 -311.429)" fill="#000007"/>
      <path id="Path_563" data-name="Path 563" d="M146.007,332.1H146l-.425-.934h-.119l-.414.934h-.009l-.381-.934h-.143l.458,1.113h.117l.423-.923h.009l.43.923h.117l.458-1.113h-.139Z" transform="translate(-113.318 -311.584)" fill="#000007"/>
      <path id="Path_564" data-name="Path 564" d="M158.9,331.084a.779.779,0,0,0-.445-.108.745.745,0,0,0-.434.112.674.674,0,0,0-.033.939.671.671,0,0,0,.463.124,3.412,3.412,0,0,0,.586-.068v-.117a3.34,3.34,0,0,1-.576.064c-.432,0-.507-.2-.511-.432H159.1A.565.565,0,0,0,158.9,331.084Zm-.445.009c.359,0,.489.135.5.388h-1C157.981,331.251,158.1,331.093,158.459,331.093Z" transform="translate(-124.427 -311.429)" fill="#000007"/>
      <path id="Path_565" data-name="Path 565" d="M167.918,331.073l-.011-.066H167.8v1.113h.13v-.932a1.82,1.82,0,0,1,.525-.088h.031v-.123h-.015A1.958,1.958,0,0,0,167.918,331.073Z" transform="translate(-132.759 -311.429)" fill="#000007"/>
      <path id="Path_566" data-name="Path 566" d="M173.721,331.084a.779.779,0,0,0-.445-.108.745.745,0,0,0-.434.112.674.674,0,0,0-.033.939.67.67,0,0,0,.463.124,3.412,3.412,0,0,0,.586-.068v-.117a3.34,3.34,0,0,1-.575.064c-.432,0-.507-.2-.511-.432h1.142A.565.565,0,0,0,173.721,331.084Zm-.445.009c.359,0,.489.135.5.388h-1C172.8,331.251,172.918,331.093,173.275,331.093Z" transform="translate(-136.792 -311.429)" fill="#000007"/>
      <path id="Path_567" data-name="Path 567" d="M183.134,328.833a1.689,1.689,0,0,0-.461-.07.932.932,0,0,0-.45.1.524.524,0,0,0-.247.487.581.581,0,0,0,.174.472.587.587,0,0,0,.395.115,3.028,3.028,0,0,0,.6-.1l.011.066h.106v-1.583h-.13Zm0,.895a2.87,2.87,0,0,1-.578.086c-.291,0-.441-.141-.441-.463,0-.339.183-.47.569-.47a1.33,1.33,0,0,1,.45.075Z" transform="translate(-144.589 -309.216)" fill="#000007"/>
      <path id="Path_568" data-name="Path 568" d="M197.726,328.764a3.158,3.158,0,0,0-.588.092v-.531h-.13v1.583h.088l.007-.053a1.586,1.586,0,0,0,.5.084.954.954,0,0,0,.448-.1.529.529,0,0,0,.247-.489.581.581,0,0,0-.174-.472A.6.6,0,0,0,197.726,328.764Zm-.139,1.056a1.294,1.294,0,0,1-.45-.077v-.767a2.735,2.735,0,0,1,.578-.088c.291,0,.441.143.441.463C198.156,329.689,197.973,329.82,197.587,329.82Z" transform="translate(-157.132 -309.217)" fill="#000007"/>
      <path id="Path_569" data-name="Path 569" d="M206.329,332.123h-.009l-.5-.961h-.15l.582,1.113-.042.088a.337.337,0,0,1-.348.229c-.042,0-.1,0-.165-.011v.121a1.339,1.339,0,0,0,.161.011.454.454,0,0,0,.465-.3l.626-1.25H206.8Z" transform="translate(-164.364 -311.584)" fill="#000007"/>
      <path id="Path_570" data-name="Path 570" d="M220.784,329.5V329.5a.33.33,0,0,0,.238-.335.319.319,0,0,0-.154-.3,1.227,1.227,0,0,0-.641-.1h-.644v1.51h.659a1.282,1.282,0,0,0,.7-.106.326.326,0,0,0,.161-.306A.346.346,0,0,0,220.784,329.5Zm-.864-.5h.353c.264,0,.412.02.412.2s-.117.2-.41.2h-.355Zm.434,1.023h-.434v-.39h.432c.258,0,.412.02.412.194S220.652,330.029,220.354,330.029Z" transform="translate(-175.973 -309.583)" fill="#000007"/>
      <path id="Path_571" data-name="Path 571" d="M231.824,331.079a.942.942,0,0,0-.518-.1c-.146,0-.322.009-.478.022v.225c.141-.013.289-.02.41-.02.313,0,.428.057.428.231v.02c-.13-.009-.287-.015-.4-.015a1.024,1.024,0,0,0-.417.059.345.345,0,0,0-.064.571.578.578,0,0,0,.337.082,2.684,2.684,0,0,0,.6-.1l.009.066h.245v-.659A.411.411,0,0,0,231.824,331.079Zm-.159.789a2.278,2.278,0,0,1-.467.066c-.174,0-.24-.053-.24-.15s.079-.15.306-.15c.139,0,.271.007.4.018Z" transform="translate(-185.216 -311.429)" fill="#000007"/>
      <path id="Path_572" data-name="Path 572" d="M241.9,330.976a2.582,2.582,0,0,0-.6.1l-.011-.071h-.253v1.113h.311v-.82a2.112,2.112,0,0,1,.454-.07c.185,0,.289.073.289.275v.615h.309v-.681a.432.432,0,0,0-.121-.348A.549.549,0,0,0,241.9,330.976Z" transform="translate(-193.881 -311.429)" fill="#000007"/>
      <path id="Path_573" data-name="Path 573" d="M251.33,331.564c0-.256.139-.348.434-.348.108,0,.242.009.355.02V331c-.139-.013-.264-.022-.392-.022a.882.882,0,0,0-.489.11.541.541,0,0,0-.227.476.573.573,0,0,0,.176.472.629.629,0,0,0,.414.117,2.812,2.812,0,0,0,.542-.07v-.229a2.626,2.626,0,0,1-.467.057C251.434,331.908,251.33,331.8,251.33,331.564Z" transform="translate(-202.202 -311.429)" fill="#000007"/>
      <path id="Path_574" data-name="Path 574" d="M260.183,331.093a1.284,1.284,0,0,0-1.069,0,.633.633,0,0,0,0,.941.948.948,0,0,0,.536.117.938.938,0,0,0,.533-.117h0a.526.526,0,0,0,.207-.472A.52.52,0,0,0,260.183,331.093Zm-.533.825c-.3,0-.425-.108-.425-.362s.13-.346.425-.346.421.11.421.364S259.942,331.917,259.649,331.917Z" transform="translate(-208.789 -311.429)" fill="#000007"/>
      <path id="Path_575" data-name="Path 575" d="M274.373,329.363c0-.348.183-.511.613-.511.154,0,.353.011.514.024V328.6c-.188-.016-.359-.026-.527-.026a1.159,1.159,0,0,0-.639.143.74.74,0,0,0-.306.641.778.778,0,0,0,.236.63.837.837,0,0,0,.542.157,3.738,3.738,0,0,0,.727-.1v-.269a3.452,3.452,0,0,1-.672.091C274.543,329.876,274.373,329.718,274.373,329.363Z" transform="translate(-221.41 -309.428)" fill="#000007"/>
      <path id="Path_576" data-name="Path 576" d="M285.615,331.088a.859.859,0,0,0-.483-.112.826.826,0,0,0-.487.117.564.564,0,0,0-.21.47.573.573,0,0,0,.178.465.719.719,0,0,0,.472.124,4.2,4.2,0,0,0,.67-.073v-.218a3.985,3.985,0,0,1-.593.057c-.313,0-.4-.11-.41-.28h1.058C285.809,331.408,285.794,331.214,285.615,331.088Zm-.86.348c.02-.17.119-.263.377-.263s.364.082.372.263Z" transform="translate(-230.096 -311.429)" fill="#000007"/>
      <path id="Path_577" data-name="Path 577" d="M295.6,330.976a2.581,2.581,0,0,0-.6.1l-.011-.071h-.254v1.113h.311v-.82a2.108,2.108,0,0,1,.454-.07c.185,0,.289.073.289.275v.615h.309v-.681a.432.432,0,0,0-.121-.348A.549.549,0,0,0,295.6,330.976Z" transform="translate(-238.695 -311.429)" fill="#000007"/>
      <path id="Path_578" data-name="Path 578" d="M304.847,330.261a.529.529,0,0,1-.031-.212v-.357h.438v-.231h-.438v-.337h-.276l-.033.337h-.225v.231h.225v.417a.577.577,0,0,0,.082.337.4.4,0,0,0,.361.159,1.758,1.758,0,0,0,.322-.04v-.223a1.417,1.417,0,0,1-.223.022A.2.2,0,0,1,304.847,330.261Z" transform="translate(-246.66 -309.884)" fill="#000007"/>
      <path id="Path_579" data-name="Path 579" d="M312.256,331.077l-.011-.071h-.253v1.113h.311V331.3a1.739,1.739,0,0,1,.436-.057c.031,0,.073,0,.108,0v-.265a.331.331,0,0,0-.04,0A1.932,1.932,0,0,0,312.256,331.077Z" transform="translate(-253.092 -311.429)" fill="#000007"/>
      <path id="Path_580" data-name="Path 580" d="M319.068,331.079a.942.942,0,0,0-.518-.1c-.146,0-.322.009-.478.022v.225c.141-.013.289-.02.41-.02.313,0,.428.057.428.231v.02c-.13-.009-.287-.015-.4-.015a1.024,1.024,0,0,0-.417.059.345.345,0,0,0-.064.571.577.577,0,0,0,.337.082,2.685,2.685,0,0,0,.6-.1l.009.066h.245v-.659A.411.411,0,0,0,319.068,331.079Zm-.159.789a2.28,2.28,0,0,1-.467.066c-.174,0-.24-.053-.24-.15s.079-.15.306-.15c.139,0,.271.007.4.018Z" transform="translate(-258.025 -311.429)" fill="#000007"/>
      <rect id="Rectangle_1299" data-name="Rectangle 1299" width="0.311" height="1.583" transform="translate(61.594 19.108)" fill="#000007"/>
    </g>
  </g>
</svg>
