<svg xmlns="http://www.w3.org/2000/svg" width="244.158" height="127.272" viewBox="0 0 244.158 127.272">
    <g id="Grupo_895" data-name="Grupo 895" transform="translate(-7299.516 -691.153)">
      <g id="Grupo_867" data-name="Grupo 867" transform="translate(7372.272 718.522)">
        <path id="Caminho_352" data-name="Caminho 352" d="M358.72,2180.6H251.208a4.3,4.3,0,0,1-4.3-4.3v-81.539a4.3,4.3,0,0,1,4.3-4.3H376.722a4.3,4.3,0,0,1,4.3,4.3v48.106" transform="translate(-246.91 -2090.466)" fill="none" stroke="#434343" stroke-linecap="round" stroke-linejoin="round" stroke-width="2"></path>
        <g id="Grupo_866" data-name="Grupo 866" transform="translate(106.161 9.062)">
          <rect id="Retângulo_521" data-name="Retângulo 521" width="18.895" height="34.913" rx="1.495" transform="translate(18.895 34.913) rotate(180)" stroke-width="2" stroke="#434343" stroke-linecap="round" stroke-linejoin="round" fill="none"></rect>
          <g id="Grupo_864" data-name="Grupo 864" transform="translate(5.138 41.836)">
            <line id="Linha_255" data-name="Linha 255" stroke-width="2" stroke="#434343" stroke-linecap="round" stroke-linejoin="round" fill="none"></line>
            <line id="Linha_256" data-name="Linha 256" transform="translate(8.975)" fill="none" stroke="#434343" stroke-linecap="round" stroke-linejoin="round" stroke-width="2"></line>
            <line id="Linha_257" data-name="Linha 257" transform="translate(8.975 5.786)" fill="none" stroke="#434343" stroke-linecap="round" stroke-linejoin="round" stroke-width="2"></line>
          </g>
          <g id="Grupo_865" data-name="Grupo 865" transform="translate(5.138 71.644)">
            <line id="Linha_258" data-name="Linha 258" stroke-width="2" stroke="#434343" stroke-linecap="round" stroke-linejoin="round" fill="none"></line>
            <line id="Linha_259" data-name="Linha 259" x2="6.404" stroke-width="2" stroke="#434343" stroke-linecap="round" stroke-linejoin="round" fill="none"></line>
          </g>
        </g>
        <rect id="Retângulo_522" data-name="Retângulo 522" width="87.266" height="71.644" rx="2.962" transform="translate(9.781 9.062)" stroke-width="2" stroke="#434343" stroke-linecap="round" stroke-linejoin="round" fill="none"></rect>
      </g>
      <g id="Grupo_868" data-name="Grupo 868" transform="translate(7300.516 817.425)">
        <line id="Linha_260" data-name="Linha 260" x2="58.613" transform="translate(64.02)" fill="none" stroke="#434343" stroke-linecap="round" stroke-linejoin="round" stroke-width="2"></line>
        <line id="Linha_261" data-name="Linha 261" x2="7.215" transform="translate(129.551)" fill="none" stroke="#434343" stroke-linecap="round" stroke-linejoin="round" stroke-width="2"></line>
        <line id="Linha_262" data-name="Linha 262" x2="35.08" transform="translate(145.097)" fill="none" stroke="#434343" stroke-linecap="round" stroke-linejoin="round" stroke-width="2"></line>
        <line id="Linha_263" data-name="Linha 263" x2="7.348" transform="translate(234.672)" fill="none" stroke="#434343" stroke-linecap="round" stroke-linejoin="round" stroke-width="2"></line>
        <line id="Linha_264" data-name="Linha 264" x2="9.277" stroke-width="2" stroke="#434343" stroke-linecap="round" stroke-linejoin="round" fill="none"></line>
      </g>
      <path id="Caminho_353" data-name="Caminho 353" d="M337.862,2137.812" transform="translate(7092.887 -1388.849)" fill="none" stroke="#434343" stroke-linecap="round" stroke-linejoin="round" stroke-width="2"></path>
      <path id="Caminho_354" data-name="Caminho 354" d="M334.569,2148.265" transform="translate(7094.063 -1392.582)" fill="none" stroke="#434343" stroke-linecap="round" stroke-linejoin="round" stroke-width="2"></path>
      <path id="Caminho_355" data-name="Caminho 355" d="M330.063,2154.3" transform="translate(7095.671 -1394.736)" fill="none" stroke="#434343" stroke-linecap="round" stroke-linejoin="round" stroke-width="2"></path>
      <g id="Grupo_869" data-name="Grupo 869" transform="translate(7393.603 741.526)">
        <line id="Linha_265" data-name="Linha 265" transform="translate(35.029 14.157)" fill="none" stroke="#00bf85" stroke-linecap="round" stroke-linejoin="round" stroke-width="2"></line>
        <path id="Caminho_356" data-name="Caminho 356" d="M320.994,2133.682a7.516,7.516,0,0,0-7.593-7.437,7.61,7.61,0,0,0-6.8,4.116.911.911,0,0,1-1.594,0,7.61,7.61,0,0,0-6.8-4.116,7.516,7.516,0,0,0-7.593,7.437c0,4.107,3.486,12.4,15.186,17.649a30.982,30.982,0,0,0,10.172-7.05" transform="translate(-283.848 -2126.245)" fill="none" stroke="#00bf85" stroke-linecap="round" stroke-linejoin="round" stroke-width="2"></path>
        <path id="Caminho_357" data-name="Caminho 357" d="M353.567,2147.812a.455.455,0,0,1-.8,0,3.8,3.8,0,0,0-3.4-2.058,3.758,3.758,0,0,0-3.8,3.719c0,2.053,1.743,6.2,7.593,8.824,5.85-2.627,7.593-6.771,7.593-8.824a3.758,3.758,0,0,0-3.8-3.719A3.805,3.805,0,0,0,353.567,2147.812Z" transform="translate(-303.47 -2133.211)" fill="none" stroke="#00bf85" stroke-linecap="round" stroke-linejoin="round" stroke-width="2"></path>
        <path id="Retângulo_523" data-name="Retângulo 523" d="M0,0H65.753a0,0,0,0,1,0,0V0A18.586,18.586,0,0,1,47.167,18.586H18.586A18.586,18.586,0,0,1,0,0V0A0,0,0,0,1,0,0Z" transform="translate(0 31.443)" fill="none" stroke="#00bf85" stroke-linecap="round" stroke-linejoin="round" stroke-width="2"></path>
      </g>
      <path id="Caminho_358" data-name="Caminho 358" d="M235.379,2086.91a8.059,8.059,0,0,1,8.059-8.059" transform="translate(7129.479 -1367.796)" fill="none" stroke="#434343" stroke-linecap="round" stroke-linejoin="round" stroke-width="2"></path>
      <path id="Caminho_359" data-name="Caminho 359" d="M221.074,2081.8a17.256,17.256,0,0,1,17.256-17.256" transform="translate(7134.587 -1362.688)" fill="none" stroke="#434343" stroke-linecap="round" stroke-linejoin="round" stroke-width="2"></path>
      <path id="Caminho_360" data-name="Caminho 360" d="M205.981,2076.412a26.96,26.96,0,0,1,26.96-26.96" transform="translate(7139.977 -1357.299)" fill="none" stroke="#434343" stroke-linecap="round" stroke-linejoin="round" stroke-width="2"></path>
      <g id="Grupo_877" data-name="Grupo 877" transform="translate(7311.911 749.599)">
        <g id="Grupo_876" data-name="Grupo 876">
          <g id="Grupo_875" data-name="Grupo 875">
            <g id="Grupo_874" data-name="Grupo 874">
              <g id="Grupo_873" data-name="Grupo 873">
                <path id="Caminho_361" data-name="Caminho 361" d="M185.308,2206.626H161.793a8.764,8.764,0,0,1-8.765-8.763l3.129-36.568a39.758,39.758,0,0,0-.8-12.023l-2.329-10.471,50.124,0" transform="translate(-153.026 -2138.801)" fill="none" stroke="#00bf85" stroke-linecap="round" stroke-linejoin="round" stroke-width="2"></path>
                <line id="Linha_266" data-name="Linha 266" x1="47.148" y1="0.085" transform="translate(1.55 6.314)" fill="none" stroke="#00bf85" stroke-linecap="round" stroke-linejoin="round" stroke-width="2"></line>
                <path id="Caminho_362" data-name="Caminho 362" d="M179.56,2224.2H169.149a5.731,5.731,0,0,1-5.731-5.73l1.474-14.766" transform="translate(-156.737 -2161.977)" fill="none" stroke="#00bf85" stroke-linecap="round" stroke-linejoin="round" stroke-width="2"></path>
              </g>
            </g>
            <path id="Caminho_363" data-name="Caminho 363" d="M230.987,2138.8" transform="translate(-180.863 -2138.802)" fill="none" stroke="#00bf85" stroke-linecap="round" stroke-linejoin="round" stroke-width="2"></path>
          </g>
          <path id="Caminho_364" data-name="Caminho 364" d="M190.8,2206.626h3.584a8.764,8.764,0,0,0,8.765-8.763l-3.129-36.568a39.758,39.758,0,0,1,.8-12.023l2.329-10.471-50.124,0" transform="translate(-153.026 -2138.801)" fill="none" stroke="#00bf85" stroke-linecap="round" stroke-linejoin="round" stroke-width="2"></path>
        </g>
        <path id="Caminho_365" data-name="Caminho 365" d="M170.881,2172.794v-11.115h27.164v15.615H170.881" transform="translate(-159.401 -2146.97)" fill="none" stroke="#00bf85" stroke-linecap="round" stroke-linejoin="round" stroke-width="2"></path>
      </g>
      <path id="Caminho_366" data-name="Caminho 366" d="M461.9,2196.617l-7.623-7.108a5.005,5.005,0,0,0-7.075.247h0a5.006,5.006,0,0,0,.247,7.076" transform="translate(7054.325 -1406.828)" fill="none" stroke="#00bf85" stroke-linecap="round" stroke-linejoin="round" stroke-width="2"></path>
      <path id="Caminho_367" data-name="Caminho 367" d="M472.617,2185.128l-7.623-7.109a5.007,5.007,0,0,0-7.076.247h0a5.006,5.006,0,0,0,.247,7.075" transform="translate(7050.499 -1402.726)" fill="none" stroke="#00bf85" stroke-linecap="round" stroke-linejoin="round" stroke-width="2"></path>
      <path id="Caminho_368" data-name="Caminho 368" d="M486.131,2176.233l-10.441-9.736a4.969,4.969,0,0,0-7.024.245h0a5.042,5.042,0,0,0,.249,7.126" transform="translate(7046.665 -1398.615)" fill="none" stroke="#00bf85" stroke-linecap="round" stroke-linejoin="round" stroke-width="2"></path>
      <path id="Caminho_369" data-name="Caminho 369" d="M470.5,2184.615a17.8,17.8,0,0,1,.879,25.16l-6.685,7.169a10.772,10.772,0,0,1-7.685,3.547H422.475a2.041,2.041,0,0,1-2.076-1.966v-.037a9.435,9.435,0,0,1,9.1-9.758l7.6-.265L413.324,2186.3a5.006,5.006,0,0,1-.247-7.075h0a5.006,5.006,0,0,1,7.075-.247l22.737,21.2" transform="translate(7066.511 -1403.067)" fill="none" stroke="#00bf85" stroke-linecap="round" stroke-linejoin="round" stroke-width="2"></path>
    </g>
  </svg>
