<svg xmlns="http://www.w3.org/2000/svg" width="240.385" height="125.073" viewBox="0 0 240.385 125.073">
    <g id="Grupo_894" data-name="Grupo 894" transform="translate(-7633.088 -693.352)">
      <g id="Grupo_882" data-name="Grupo 882" transform="translate(7657.291 694.352)">
        <g id="Grupo_880" data-name="Grupo 880" transform="translate(152.595 21.202)">
          <path id="Ret창ngulo_524" data-name="Ret창ngulo 524" d="M0,0H101.853a0,0,0,0,1,0,0V0A19.232,19.232,0,0,1,82.621,19.232H19.232A19.232,19.232,0,0,1,0,0V0A0,0,0,0,1,0,0Z" transform="translate(44.995 99.872) rotate(-116.216)" fill="none" stroke="#434343" stroke-linecap="round" stroke-linejoin="round" stroke-width="2"></path>
          <path id="Caminho_370" data-name="Caminho 370" d="M938.462,2150.963l1.491-.734a5.905,5.905,0,0,1,7.88,2.766h0a5.906,5.906,0,0,1-2.612,7.933l-1.491.734" transform="translate(-901.345 -2110.625)" fill="none" stroke="#434343" stroke-linecap="round" stroke-linejoin="round" stroke-width="2"></path>
        </g>
        <path id="Caminho_371" data-name="Caminho 371" d="M815.568,2212.066H755.244a5.8,5.8,0,0,1-5.8-5.8" transform="translate(-681.26 -2109.645)" fill="none" stroke="#434343" stroke-linecap="round" stroke-linejoin="round" stroke-width="2"></path>
        <path id="Caminho_372" data-name="Caminho 372" d="M726.871,2144.995h-8.729a5.906,5.906,0,0,1-5.847-5.963v-.467h117.51" transform="translate(-667.994 -2085.47)" fill="none" stroke="#434343" stroke-linecap="round" stroke-linejoin="round" stroke-width="2"></path>
        <path id="Caminho_373" data-name="Caminho 373" d="M839.268,2138.565h-1.506v44.264a12.79,12.79,0,0,1-12.791,12.791H748.7a12.79,12.79,0,0,1-12.791-12.791v-42.851" transform="translate(-676.425 -2085.47)" fill="none" stroke="#434343" stroke-linecap="round" stroke-linejoin="round" stroke-width="2"></path>
        <line id="Linha_267" data-name="Linha 267" x2="5.562" transform="translate(161.722 59.525)" fill="none" stroke="#434343" stroke-linecap="round" stroke-linejoin="round" stroke-width="2"></line>
        <path id="Ret창ngulo_525" data-name="Ret창ngulo 525" d="M10.923,0H48.508A10.923,10.923,0,0,1,59.431,10.923v0a0,0,0,0,1,0,0H0a0,0,0,0,1,0,0v0A10.923,10.923,0,0,1,10.923,0Z" transform="translate(140.878 121.073) rotate(180)" fill="none" stroke="#434343" stroke-linecap="round" stroke-linejoin="round" stroke-width="2"></path>
        <line id="Linha_268" data-name="Linha 268" x2="38.64" transform="translate(35.297 123.073)" fill="none" stroke="#00bf85" stroke-linecap="round" stroke-linejoin="round" stroke-width="2"></line>
        <line id="Linha_269" data-name="Linha 269" x2="101.462" transform="translate(82.147 123.073)" fill="none" stroke="#00bf85" stroke-linecap="round" stroke-linejoin="round" stroke-width="2"></line>
        <line id="Linha_270" data-name="Linha 270" x2="16.378" transform="translate(192.069 123.073)" fill="none" stroke="#00bf85" stroke-linecap="round" stroke-linejoin="round" stroke-width="2"></line>
        <g id="Grupo_881" data-name="Grupo 881" transform="translate(87.227 1.436)">
          <path id="Caminho_374" data-name="Caminho 374" d="M813.879,2055.1a4.052,4.052,0,0,0,0,6.228l1.967,1.739a4.315,4.315,0,0,1,.028,6.611l-2.047,1.836a4.05,4.05,0,0,0,.026,6.2l1.993,1.762a4.316,4.316,0,0,1,.028,6.612l-2.047,1.835a4.05,4.05,0,0,0,.026,6.2" transform="translate(-790.962 -2055.105)" fill="none" stroke="#00bf85" stroke-linecap="round" stroke-linejoin="round" stroke-width="2"></path>
          <path id="Caminho_375" data-name="Caminho 375" d="M782.513,2078.349a4.315,4.315,0,0,1,.028,6.611l-2.046,1.836a4.049,4.049,0,0,0,.026,6.2l1.993,1.761a4.316,4.316,0,0,1,.028,6.612l-2.046,1.836a4.049,4.049,0,0,0,.026,6.2" transform="translate(-779.06 -2063.405)" fill="none" stroke="#00bf85" stroke-linecap="round" stroke-linejoin="round" stroke-width="2"></path>
          <path id="Caminho_376" data-name="Caminho 376" d="M849.182,2078.349a4.316,4.316,0,0,1,.028,6.611l-2.047,1.836a4.049,4.049,0,0,0,.026,6.2l1.993,1.761a4.317,4.317,0,0,1,.028,6.612l-2.047,1.836a4.049,4.049,0,0,0,.026,6.2" transform="translate(-802.865 -2063.405)" fill="none" stroke="#00bf85" stroke-linecap="round" stroke-linejoin="round" stroke-width="2"></path>
        </g>
        <path id="Caminho_377" data-name="Caminho 377" d="M745.63,2104.125a.455.455,0,0,1-.8,0,3.805,3.805,0,0,0-3.4-2.058,3.759,3.759,0,0,0-3.8,3.719c0,2.053,1.743,6.2,7.593,8.824,5.85-2.627,7.593-6.771,7.593-8.824a3.759,3.759,0,0,0-3.8-3.719A3.806,3.806,0,0,0,745.63,2104.125Z" transform="translate(-677.043 -2070.438)" fill="none" stroke="#00bf85" stroke-linecap="round" stroke-linejoin="round" stroke-width="2"></path>
        <path id="Caminho_378" data-name="Caminho 378" d="M868.423,2055.162a.507.507,0,0,1-.887,0,4.233,4.233,0,0,0-3.781-2.29,4.181,4.181,0,0,0-4.225,4.137c0,2.285,1.94,6.9,8.449,9.819,6.509-2.923,8.448-7.534,8.448-9.819a4.181,4.181,0,0,0-4.224-4.137A4.232,4.232,0,0,0,868.423,2055.162Z" transform="translate(-720.566 -2052.872)" fill="none" stroke="#00bf85" stroke-linecap="round" stroke-linejoin="round" stroke-width="2"></path>
      </g>
      <g id="Grupo_889" data-name="Grupo 889" transform="translate(7642.674 749.599)">
        <g id="Grupo_888" data-name="Grupo 888">
          <g id="Grupo_887" data-name="Grupo 887">
            <g id="Grupo_886" data-name="Grupo 886">
              <g id="Grupo_885" data-name="Grupo 885">
                <path id="Caminho_379" data-name="Caminho 379" d="M652.939,2206.626H629.423a8.763,8.763,0,0,1-8.764-8.763l3.129-36.568a39.756,39.756,0,0,0-.8-12.023l-2.329-10.471,50.125,0" transform="translate(-620.656 -2138.801)" fill="none" stroke="#00bf85" stroke-linecap="round" stroke-linejoin="round" stroke-width="2"></path>
                <line id="Linha_271" data-name="Linha 271" x1="47.148" y1="0.085" transform="translate(1.55 6.314)" fill="none" stroke="#00bf85" stroke-linecap="round" stroke-linejoin="round" stroke-width="2"></line>
                <path id="Caminho_380" data-name="Caminho 380" d="M647.191,2224.2H636.779a5.731,5.731,0,0,1-5.731-5.73l1.475-14.766" transform="translate(-624.367 -2161.977)" fill="none" stroke="#00bf85" stroke-linecap="round" stroke-linejoin="round" stroke-width="2"></path>
              </g>
            </g>
            <path id="Caminho_381" data-name="Caminho 381" d="M698.618,2138.8" transform="translate(-648.493 -2138.802)" fill="none" stroke="#00bf85" stroke-linecap="round" stroke-linejoin="round" stroke-width="2"></path>
          </g>
          <path id="Caminho_382" data-name="Caminho 382" d="M658.43,2206.626h3.584a8.763,8.763,0,0,0,8.764-8.763l-3.129-36.568a39.764,39.764,0,0,1,.8-12.023l2.329-10.471-50.125,0" transform="translate(-620.656 -2138.801)" fill="none" stroke="#00bf85" stroke-linecap="round" stroke-linejoin="round" stroke-width="2"></path>
        </g>
        <path id="Caminho_383" data-name="Caminho 383" d="M638.512,2172.794v-11.115h27.164v15.615H638.512" transform="translate(-627.032 -2146.97)" fill="none" stroke="#00bf85" stroke-linecap="round" stroke-linejoin="round" stroke-width="2"></path>
      </g>
      <line id="Linha_272" data-name="Linha 272" x2="8.5" transform="translate(7634.088 817.425)" fill="none" stroke="#00bf85" stroke-linecap="round" stroke-linejoin="round" stroke-width="2"></line>
    </g>
  </svg>
