<svg xmlns="http://www.w3.org/2000/svg" width="187.943" height="120.22" viewBox="0 0 187.943 120.22">
  <g id="Group_2001" data-name="Group 2001" transform="translate(1 1)">
    <g id="Group_2000" data-name="Group 2000" transform="translate(0 0)">
      <path id="Retângulo_120" data-name="Retângulo 120" d="M242.507,1595.169h51.046a1.91,1.91,0,0,1,1.909,1.91v52.957H240.6v-52.957a1.911,1.911,0,0,1,1.91-1.91Z" transform="translate(-211.268 -1595.169)" fill="none" stroke="#424242" stroke-linecap="round" stroke-linejoin="round" stroke-width="2"/>
      <path id="Caminho_161" data-name="Caminho 161" d="M343.19,1666.681a34.592,34.592,0,0,1-20.529,11.04,4.517,4.517,0,0,1-5.193-4.458v-19.827a7.047,7.047,0,0,0-7.047-7.047H276.4c-.822.023-1.637-.073-2.448,0-18.216,1.626-32.079,17.547-32.913,35.816l-.443,9.747h98.779a16.109,16.109,0,0,0,13.976-8.1l16.753-29.223-7.818-35.329H352.135v24.142" transform="translate(-211.267 -1590.935)" fill="none" stroke="#424242" stroke-linecap="round" stroke-linejoin="round" stroke-width="2"/>
      <path id="Caminho_162" data-name="Caminho 162" d="M334.514,1648.552a34.557,34.557,0,0,1-2.24,5.517" transform="translate(-195.185 -1585.804)" fill="none" stroke="#424242" stroke-linecap="round" stroke-linejoin="round" stroke-width="2"/>
      <rect id="Retângulo_121" data-name="Retângulo 121" width="26.925" height="18.579" rx="1.698" transform="translate(131.918 9.081)" fill="none" stroke="#424242" stroke-linecap="round" stroke-linejoin="round" stroke-width="2"/>
      <path id="Caminho_163" data-name="Caminho 163" d="M244.99,1685.371a28.557,28.557,0,0,1,57.114,0" transform="translate(-210.497 -1584.355)" fill="none" stroke="#424242" stroke-linecap="round" stroke-linejoin="round" stroke-width="2"/>
      <path id="Caminho_164" data-name="Caminho 164" d="M288.193,1681.735a16.452,16.452,0,0,1-32.9.033v-.033" transform="translate(-208.69 -1579.983)" fill="none" stroke="#424242" stroke-linecap="round" stroke-linejoin="round" stroke-width="2"/>
      <path id="Caminho_164-2" data-name="Caminho 164" d="M276.448,1681.949a6.233,6.233,0,1,1-12.465.013v-.013" transform="translate(-207.165 -1579.946)" fill="none" stroke="#424242" stroke-linecap="round" stroke-linejoin="round" stroke-width="2"/>
      <path id="Caminho_164-3" data-name="Caminho 164" d="M361.548,1681.949a6.233,6.233,0,1,1-12.465.013v-.013" transform="translate(-192.237 -1579.946)" fill="none" stroke="#424242" stroke-linecap="round" stroke-linejoin="round" stroke-width="2"/>
      <path id="Caminho_165" data-name="Caminho 165" d="M373.292,1681.735a16.451,16.451,0,1,1-32.9.033v-.033" transform="translate(-193.762 -1579.983)" fill="none" stroke="#424242" stroke-linecap="round" stroke-linejoin="round" stroke-width="2"/>
      <path id="Caminho_166" data-name="Caminho 166" d="M289.323,1630.967h19.61a5.186,5.186,0,0,1,5.187,5.186h0v2.338a5.186,5.186,0,0,1-5.186,5.187H287.194" transform="translate(-203.094 -1588.889)" fill="none" stroke="#424242" stroke-linecap="round" stroke-linejoin="round" stroke-width="2"/>
      <path id="Caminho_167" data-name="Caminho 167" d="M329.523,1609.309h-7.587a3.456,3.456,0,0,0-3.456,3.455v4.134a3.456,3.456,0,0,0,3.456,3.456h20.357" transform="translate(-197.605 -1592.688)" fill="none" stroke="#424242" stroke-linecap="round" stroke-linejoin="round" stroke-width="2"/>
      <path id="Retângulo_122" data-name="Retângulo 122" d="M354.583,1600.841h13.007v22.892H354.583a3.8,3.8,0,0,1-3.8-3.8h0v-15.288A3.8,3.8,0,0,1,354.583,1600.841Z" transform="translate(-191.939 -1594.174)" fill="none" stroke="#424242" stroke-linecap="round" stroke-linejoin="round" stroke-width="2"/>
      <line id="Linha_130" data-name="Linha 130" x2="9.204" y2="11.392" transform="translate(29.329 54.866)" fill="none" stroke="#424242" stroke-linecap="round" stroke-linejoin="round" stroke-width="2"/>
      <path id="Caminho_168" data-name="Caminho 168" d="M357.456,1649.741c.664.019-.8-.058-.148,0,14.742,1.318,25.963,14.206,26.635,28.987l.36,7.887H314.176" transform="translate(-198.36 -1585.599)" fill="none" stroke="#424242" stroke-linecap="round" stroke-linejoin="round" stroke-width="2"/>
      <line id="Linha_131" data-name="Linha 131" x1="25.298" transform="translate(22.458 118.204)" fill="none" stroke="#009180" stroke-linecap="round" stroke-linejoin="round" stroke-width="2"/>
      <line id="Linha_132" data-name="Linha 132" x1="22.921" transform="translate(0 28.714)" fill="none" stroke="#009180" stroke-linecap="round" stroke-linejoin="round" stroke-width="2"/>
      <line id="Linha_133" data-name="Linha 133" x1="10.151" transform="translate(12.77 41.586)" fill="none" stroke="#009180" stroke-linecap="round" stroke-linejoin="round" stroke-width="2"/>
      <line id="Linha_134" data-name="Linha 134" x1="26.732" transform="translate(12.77 54.866)" fill="none" stroke="#424242" stroke-linecap="round" stroke-linejoin="round" stroke-width="2"/>
      <line id="Linha_135" data-name="Linha 135" x1="7.828" transform="translate(176.939 118.204)" fill="none" stroke="#009180" stroke-linecap="round" stroke-linejoin="round" stroke-width="2"/>
      <line id="Linha_136" data-name="Linha 136" x1="71.141" transform="translate(77.188 118.204)" fill="none" stroke="#009180" stroke-linecap="round" stroke-linejoin="round" stroke-width="2"/>
      <line id="Linha_137" data-name="Linha 137" x1="13.108" transform="translate(3.019 118.204)" fill="none" stroke="#009180" stroke-linecap="round" stroke-linejoin="round" stroke-width="2"/>
      <line id="Linha_139" data-name="Linha 139" x2="41.781" transform="translate(31.924 13.816)" fill="none" stroke="#424242" stroke-linecap="round" stroke-linejoin="round" stroke-width="2"/>
      <path id="Path_532" data-name="Path 532" d="M318.48,1596.643h19.574a6.586,6.586,0,0,1,6.586,6.586" transform="translate(-197.605 -1594.911)" fill="none" stroke="#424242" stroke-linecap="round" stroke-linejoin="round" stroke-width="2"/>
    </g>
  </g>
</svg>
