<svg xmlns="http://www.w3.org/2000/svg" width="259.452" height="143.934" viewBox="0 0 259.452 143.934">
  <g id="Group_1997" data-name="Group 1997" transform="translate(1 1.414)">
    <g id="Group_1992" data-name="Group 1992" transform="translate(62.013 12.234)">
      <path id="Rectangle_1231" data-name="Rectangle 1231" d="M0,0H125.177a0,0,0,0,1,0,0V4.53a19.106,19.106,0,0,1-19.106,19.106H19.106A19.106,19.106,0,0,1,0,4.53V0A0,0,0,0,1,0,0Z" transform="translate(124.774 37.807) rotate(-175.396)" fill="none" stroke="#424242" stroke-linecap="round" stroke-linejoin="round" stroke-width="2"/>
      <path id="Path_520" data-name="Path 520" d="M713.048,1200.429l.163-2.037a7.259,7.259,0,0,1,7.882-6.574h0a7.257,7.257,0,0,1,6.727,7.751l-.163,2.036" transform="translate(-656.069 -1191.793)" fill="none" stroke="#424242" stroke-linecap="round" stroke-linejoin="round" stroke-width="2"/>
    </g>
    <g id="Group_1993" data-name="Group 1993" transform="translate(42.984 57.974)">
      <path id="Path_521" data-name="Path 521" d="M714.323,1283.345H680.483a7.124,7.124,0,0,1-7.124-7.123" transform="translate(-644.003 -1222.723)" fill="none" stroke="#424242" stroke-linecap="round" stroke-linejoin="round" stroke-width="2"/>
      <path id="Path_522" data-name="Path 522" d="M666.3,1238.611H655.57a7.259,7.259,0,0,1-7.187-7.329v-.575H781.742" transform="translate(-648.384 -1230.707)" fill="none" stroke="#424242" stroke-linecap="round" stroke-linejoin="round" stroke-width="2"/>
      <path id="Path_523" data-name="Path 523" d="M789.917,1238.611h10.727a7.259,7.259,0,0,0,7.187-7.329v-.575H789.387v54.4a15.72,15.72,0,0,1-15.72,15.72H679.929a15.72,15.72,0,0,1-15.72-15.72v-52.664" transform="translate(-645.608 -1230.707)" fill="none" stroke="#424242" stroke-linecap="round" stroke-linejoin="round" stroke-width="2"/>
    </g>
    <path id="Rectangle_1232" data-name="Rectangle 1232" d="M10.851,0H62.189A10.851,10.851,0,0,1,73.041,10.851v2.573a0,0,0,0,1,0,0H0a0,0,0,0,1,0,0V10.851A10.851,10.851,0,0,1,10.851,0Z" transform="translate(160.616 141.52) rotate(180)" fill="none" stroke="#424242" stroke-linecap="round" stroke-linejoin="round" stroke-width="2"/>
    <line id="Line_410" data-name="Line 410" x2="82.931" transform="translate(0 141.52)" fill="none" stroke="#424242" stroke-linecap="round" stroke-linejoin="round" stroke-width="2"/>
    <line id="Line_411" data-name="Line 411" x2="43.605" transform="translate(147.323 141.52)" fill="none" stroke="#424242" stroke-linecap="round" stroke-linejoin="round" stroke-width="2"/>
    <line id="Line_412" data-name="Line 412" x2="13.925" transform="translate(201.566 141.52)" fill="none" stroke="#424242" stroke-linecap="round" stroke-linejoin="round" stroke-width="2"/>
    <line id="Line_413" data-name="Line 413" x2="4.714" transform="translate(252.738 141.52)" fill="none" stroke="#424242" stroke-linecap="round" stroke-linejoin="round" stroke-width="2"/>
    <path id="Path_524" data-name="Path 524" d="M779.474,1271.3h60.117l-8.441,31.053c-.757,2.785-3.971,4.782-7.7,4.782H795.611c-3.726,0-6.94-2-7.7-4.782Z" transform="translate(-582.403 -1165.612)" fill="none" stroke="#424242" stroke-linecap="round" stroke-linejoin="round" stroke-width="2"/>
    <path id="Path_525" data-name="Path 525" d="M782.637,1272a10.343,10.343,0,1,1,20.685,0" transform="translate(-581.848 -1167.304)" fill="none" stroke="#424242" stroke-linecap="round" stroke-linejoin="round" stroke-width="2"/>
    <path id="Path_526" data-name="Path 526" d="M800.046,1272.27a12.175,12.175,0,1,1,24.35,0" transform="translate(-578.794 -1167.578)" fill="none" stroke="#424242" stroke-linecap="round" stroke-linejoin="round" stroke-width="2"/>
    <path id="Path_527" data-name="Path 527" d="M805.5,1271.313a5.765,5.765,0,1,1,11.531,0" transform="translate(-577.838 -1166.621)" fill="none" stroke="#424242" stroke-linecap="round" stroke-linejoin="round" stroke-width="2"/>
    <path id="Path_528" data-name="Path 528" d="M796.4,1263.706a19.213,19.213,0,0,1,35.846,9.614" transform="translate(-579.433 -1168.627)" fill="none" stroke="#424242" stroke-linecap="round" stroke-linejoin="round" stroke-width="2"/>
    <path id="Path_529" data-name="Path 529" d="M643.4,1211.3a.723.723,0,0,1-1.266,0,6.045,6.045,0,0,0-5.4-3.269,5.97,5.97,0,0,0-6.031,5.906c0,3.263,2.769,9.845,12.062,14.019,9.294-4.174,12.063-10.756,12.063-14.019a5.97,5.97,0,0,0-6.031-5.906A6.045,6.045,0,0,0,643.4,1211.3Z" transform="translate(-608.5 -1176.71)" fill="none" stroke="#009180" stroke-linecap="round" stroke-linejoin="round" stroke-width="2"/>
    <g id="Group_1994" data-name="Group 1994" transform="translate(176.955)">
      <line id="Line_414" data-name="Line 414" x2="5.582" y2="5.582" fill="none" stroke="#009180" stroke-linecap="round" stroke-linejoin="round" stroke-width="2"/>
      <line id="Line_415" data-name="Line 415" x1="5.582" y2="5.582" fill="none" stroke="#009180" stroke-linecap="round" stroke-linejoin="round" stroke-width="2"/>
    </g>
    <g id="Group_1995" data-name="Group 1995" transform="translate(194.601 20.933)">
      <line id="Line_416" data-name="Line 416" x2="5.582" y2="5.582" fill="none" stroke="#009180" stroke-linecap="round" stroke-linejoin="round" stroke-width="2"/>
      <line id="Line_417" data-name="Line 417" x1="5.582" y2="5.582" fill="none" stroke="#009180" stroke-linecap="round" stroke-linejoin="round" stroke-width="2"/>
    </g>
    <g id="Group_1996" data-name="Group 1996" transform="translate(14.909 76.432)">
      <path id="Path_530" data-name="Path 530" d="M648.8,1264.558H634.13l-1.737-18.148h18.148Z" transform="translate(-623.114 -1246.41)" fill="none" stroke="#424242" stroke-linecap="round" stroke-linejoin="round" stroke-width="2"/>
      <path id="Path_531" data-name="Path 531" d="M651.779,1308.789H633.925a9.422,9.422,0,0,1-9.226-11.337l7.388-35.6h21.531l7.388,35.6A9.423,9.423,0,0,1,651.779,1308.789Z" transform="translate(-624.499 -1243.702)" fill="none" stroke="#424242" stroke-linecap="round" stroke-linejoin="round" stroke-width="2"/>
      <line id="Line_418" data-name="Line 418" y1="23.213" x2="4.817" transform="translate(7.249 34.227)" fill="none" stroke="#424242" stroke-linecap="round" stroke-linejoin="round" stroke-width="2"/>
    </g>
  </g>
</svg>
