<svg xmlns="http://www.w3.org/2000/svg" width="225.713" height="143.935" viewBox="0 0 225.713 143.935">
  <g id="Group_1999" data-name="Group 1999" transform="translate(1 1.414)">
    <g id="Grupo_322" data-name="Grupo 322" transform="translate(13.084 16.994)">
      <path id="Caminho_162" data-name="Caminho 162" d="M353.456,1308.63H210.709v-105.8a6.987,6.987,0,0,1,6.987-6.987H371.544a6.986,6.986,0,0,1,6.987,6.987v65.045" transform="translate(-210.709 -1195.843)" fill="none" stroke="#424242" stroke-linecap="round" stroke-linejoin="round" stroke-width="2"/>
      <path id="Caminho_163" data-name="Caminho 163" d="M360.359,1295.138H224.215a3.1,3.1,0,0,1-3.1-3.1h0v-83.455a3.1,3.1,0,0,1,3.1-3.1H360.359a3.1,3.1,0,0,1,3.1,3.1h0v69.874" transform="translate(-208.883 -1194.151)" fill="none" stroke="#424242" stroke-linecap="round" stroke-linejoin="round" stroke-width="2"/>
      <path id="Caminho_164" data-name="Caminho 164" d="M339.579,1281.759" transform="translate(-188.102 -1180.771)" fill="none" stroke="#424242" stroke-linecap="round" stroke-linejoin="round" stroke-width="2"/>
      <path id="Caminho_165" data-name="Caminho 165" d="M342.213,1267.566" transform="translate(-187.64 -1183.261)" fill="none" stroke="#424242" stroke-linecap="round" stroke-linejoin="round" stroke-width="2"/>
    </g>
    <path id="Caminho_166" data-name="Caminho 166" d="M272.964,1228.247" transform="translate(-186.704 -1173.164)" fill="none" stroke="#00bf85" stroke-linecap="round" stroke-linejoin="round" stroke-width="2"/>
    <path id="Caminho_167" data-name="Caminho 167" d="M270.706,1235.4" transform="translate(-187.1 -1171.909)" fill="none" stroke="#00bf85" stroke-linecap="round" stroke-linejoin="round" stroke-width="2"/>
    <path id="Caminho_168" data-name="Caminho 168" d="M267.626,1239.533" transform="translate(-187.641 -1171.185)" fill="none" stroke="#00bf85" stroke-linecap="round" stroke-linejoin="round" stroke-width="2"/>
    <path id="Caminho_169" data-name="Caminho 169" d="M343.685,1302.77H207.656a8.079,8.079,0,0,1-8.078-8.077v-2.9h68.575" transform="translate(-199.578 -1162.016)" fill="none" stroke="#424242" stroke-linecap="round" stroke-linejoin="round" stroke-width="2"/>
    <g id="Grupo_332" data-name="Grupo 332" transform="translate(61.569 50.799)">
      <path id="Caminho_170" data-name="Caminho 170" d="M304.256,1263.794H270.513a18.555,18.555,0,0,1-18.555-18.553H322.81a18.554,18.554,0,0,1-18.553,18.554Z" transform="translate(-251.958 -1220.983)" fill="none" stroke="#009180" stroke-linecap="round" stroke-linejoin="round" stroke-width="2"/>
      <g id="Grupo_331" data-name="Grupo 331" transform="translate(14.033)">
        <g id="Group_1998" data-name="Group 1998">
          <g id="Grupo_326" data-name="Grupo 326" transform="translate(36.329 4.565)">
            <g id="Grupo_325" data-name="Grupo 325">
              <g id="Grupo_324" data-name="Grupo 324">
                <path id="Caminho_171" data-name="Caminho 171" d="M308.587,1228.573l.4.4a12.328,12.328,0,0,1-13.7,13.695l-.4-.4a12.328,12.328,0,0,1,13.7-13.7Z" transform="translate(-294.804 -1228.486)" fill="none" stroke="#009180" stroke-linecap="round" stroke-linejoin="round" stroke-width="2"/>
              </g>
            </g>
          </g>
          <g id="Grupo_327" data-name="Grupo 327" transform="translate(0 10.759)">
            <path id="Caminho_172" data-name="Caminho 172" d="M275.676,1244.576a9.83,9.83,0,0,1,18.1,0" transform="translate(-261.831 -1232.91)" fill="none" stroke="#009180" stroke-linecap="round" stroke-linejoin="round" stroke-width="2"/>
            <path id="Caminho_173" data-name="Caminho 173" d="M263.9,1245.823a12.067,12.067,0,0,1,12.065-12.067h0a12.062,12.062,0,0,1,10.226,5.664" transform="translate(-263.897 -1233.756)" fill="none" stroke="#009180" stroke-linecap="round" stroke-linejoin="round" stroke-width="2"/>
          </g>
          <g id="Grupo_330" data-name="Grupo 330" transform="translate(23.977)">
            <g id="Grupo_329" data-name="Grupo 329">
              <g id="Grupo_328" data-name="Grupo 328">
                <path id="Caminho_174" data-name="Caminho 174" d="M285.172,1224.773l.353-.17a8.569,8.569,0,0,1,5.83,12.139l-.353.17a8.574,8.574,0,0,1-5.83-12.139Z" transform="translate(-284.295 -1224.603)" fill="none" stroke="#009180" stroke-linecap="round" stroke-linejoin="round" stroke-width="2"/>
              </g>
            </g>
          </g>
        </g>
      </g>
    </g>
    <g id="Grupo_333" data-name="Grupo 333" transform="translate(61.801 101.581)">
      <line id="Linha_130" data-name="Linha 130" x2="52.705" fill="none" stroke="#424242" stroke-linecap="round" stroke-linejoin="round" stroke-width="2"/>
      <line id="Linha_131" data-name="Linha 131" x2="9.028" transform="translate(61.361)" fill="none" stroke="#424242" stroke-linecap="round" stroke-linejoin="round" stroke-width="2"/>
    </g>
    <path id="Caminho_175" data-name="Caminho 175" d="M326.421,1250.045l3.751-3.751a2.1,2.1,0,0,0,0-2.979h0l-3.751-3.751" transform="translate(-177.327 -1171.179)" fill="none" stroke="#424242" stroke-linecap="round" stroke-linejoin="round" stroke-width="2"/>
    <path id="Caminho_176" data-name="Caminho 176" d="M238.424,1250.045l-3.751-3.751a2.106,2.106,0,0,1,0-2.979h0l3.751-3.751" transform="translate(-193.53 -1171.179)" fill="none" stroke="#424242" stroke-linecap="round" stroke-linejoin="round" stroke-width="2"/>
    <line id="Linha_132" data-name="Linha 132" x2="16.992" transform="translate(124.801 36.284)" fill="none" stroke="#424242" stroke-linecap="round" stroke-linejoin="round" stroke-width="2"/>
    <line id="Linha_133" data-name="Linha 133" x2="16.992" transform="translate(43.52 36.284)" fill="none" stroke="#424242" stroke-linecap="round" stroke-linejoin="round" stroke-width="2"/>
    <line id="Linha_134" data-name="Linha 134" x2="49.295" transform="translate(68.53 36.284)" fill="none" stroke="#424242" stroke-linecap="round" stroke-linejoin="round" stroke-width="2"/>
    <line id="Linha_135" data-name="Linha 135" x2="0.361" transform="translate(148.915 36.284)" fill="none" stroke="#424242" stroke-linecap="round" stroke-linejoin="round" stroke-width="2"/>
    <line id="Linha_136" data-name="Linha 136" x2="5.999" y2="5.999" transform="translate(172.386)" fill="none" stroke="#00bf85" stroke-linecap="round" stroke-linejoin="round" stroke-width="2"/>
    <line id="Linha_137" data-name="Linha 137" x1="5.999" y2="5.999" transform="translate(172.386)" fill="none" stroke="#009180" stroke-linecap="round" stroke-linejoin="round" stroke-width="2"/>
    <line id="Linha_138" data-name="Linha 138" x2="5.999" y2="5.999" transform="translate(191.35 20.933)" fill="none" stroke="#00bf85" stroke-linecap="round" stroke-linejoin="round" stroke-width="2"/>
    <line id="Linha_139" data-name="Linha 139" x1="5.999" y2="5.999" transform="translate(191.35 20.933)" fill="none" stroke="#009180" stroke-linecap="round" stroke-linejoin="round" stroke-width="2"/>
    <path id="Caminho_177" data-name="Caminho 177" d="M364.834,1273.865l-9.249-9.25a6.282,6.282,0,0,0-8.884,0h0a6.284,6.284,0,0,0,0,8.885" transform="translate(-174.092 -1167.107)" fill="none" stroke="#424242" stroke-linecap="round" stroke-linejoin="round" stroke-width="2"/>
    <path id="Caminho_178" data-name="Caminho 178" d="M372.46,1266.24l-9.249-9.251a6.285,6.285,0,0,0-8.886,0h0a6.286,6.286,0,0,0,0,8.885" transform="translate(-172.754 -1168.445)" fill="none" stroke="#424242" stroke-linecap="round" stroke-linejoin="round" stroke-width="2"/>
    <path id="Caminho_179" data-name="Caminho 179" d="M383.469,1262,370.8,1249.334a6.238,6.238,0,0,0-8.816,0h0a6.328,6.328,0,0,0,0,8.949h0" transform="translate(-171.413 -1169.785)" fill="none" stroke="#424242" stroke-linecap="round" stroke-linejoin="round" stroke-width="2"/>
    <path id="Caminho_180" data-name="Caminho 180" d="M395.324,1265.85a22.342,22.342,0,0,1,0,31.6h0l-8.7,8.7a13.293,13.293,0,0,1-9.787,3.888l-43.324-1.255A2.593,2.593,0,0,1,331,1306.19v-.046a11.84,11.84,0,0,1,11.84-11.84h9.542l-28.845-28.845a6.283,6.283,0,0,1,0-8.885h0a6.283,6.283,0,0,1,8.885,0l27.59,27.591" transform="translate(-178.155 -1168.518)" fill="none" stroke="#424242" stroke-linecap="round" stroke-linejoin="round" stroke-width="2"/>
  </g>
</svg>
