<svg id="Group_597" data-name="Group 597" xmlns="http://www.w3.org/2000/svg" width="51.706" height="51.706" viewBox="0 0 51.706 51.706">
  <ellipse id="Ellipse_38" data-name="Ellipse 38" cx="25.853" cy="25.853" rx="25.853" ry="25.853" fill="#f5f5f5"/>
  <g id="Grupo_82" data-name="Grupo 82" transform="translate(8.797 8.795)">
    <path id="Caminho_55" data-name="Caminho 55" d="M910.71,1169.671a17.056,17.056,0,1,0-31.434,8.026l-1.938,6.435a.641.641,0,0,0,.8.8l6.435-1.94a17.056,17.056,0,0,0,26.139-13.321Z" transform="translate(-876.633 -1151.52)" fill="#f5f5f5" stroke="#434343" stroke-linecap="round" stroke-linejoin="round" stroke-width="1.5"/>
    <path id="Caminho_56" data-name="Caminho 56" d="M893.241,1166.96" transform="translate(-872.512 -1147.689)" fill="#f5f5f5" stroke="#434343" stroke-linecap="round" stroke-linejoin="round" stroke-width="1.5"/>
    <g id="Grupo_81" data-name="Grupo 81" transform="translate(8.262 9.596)">
      <path id="Caminho_57" data-name="Caminho 57" d="M888.958,1163.813a.779.779,0,0,0-.036-.74c-.107-.211-.951-2.29-1.3-3.139-.341-.824-.692-.712-.951-.725a4.281,4.281,0,0,0-1.937.515,4.736,4.736,0,0,0-1.479,3.523,8.2,8.2,0,0,0,1.726,4.37c.211.282,2.98,4.551,7.219,6.379a24.2,24.2,0,0,0,2.409.887,5.814,5.814,0,0,0,2.66.167,4.353,4.353,0,0,0,2.852-2.011,3.516,3.516,0,0,0,.247-2.007c-.107-.177-.387-.282-.81-.494" transform="translate(-883.252 -1159.208)" fill="#f5f5f5" stroke="#434343" stroke-linecap="round" stroke-linejoin="round" stroke-width="1.5"/>
      <path id="Caminho_58" data-name="Caminho 58" d="M892.578,1169.767a11.571,11.571,0,0,1-3.4-2.093,12.767,12.767,0,0,1-2.35-2.928" transform="translate(-882.365 -1157.834)" fill="#f5f5f5" stroke="#434343" stroke-linecap="round" stroke-linejoin="round" stroke-width="1.5"/>
      <path id="Caminho_59" data-name="Caminho 59" d="M897.079,1168.581c-.422-.215-2.5-1.234-2.887-1.375s-.669-.21-.951.215" transform="translate(-880.774 -1157.251)" fill="#f5f5f5" stroke="#434343" stroke-linecap="round" stroke-linejoin="round" stroke-width="1.5"/>
    </g>
  </g>
</svg>
