<svg id="Group_598" data-name="Group 598" xmlns="http://www.w3.org/2000/svg" width="52.421" height="52.421" viewBox="0 0 52.421 52.421">
  <path id="Path_138" data-name="Path 138" d="M26.211,0A26.211,26.211,0,1,1,0,26.211,26.211,26.211,0,0,1,26.211,0Z" fill="#f5f5f5"/>
  <ellipse id="Ellipse_33" data-name="Ellipse 33" cx="20.343" cy="20.343" rx="20.343" ry="20.343" transform="translate(6.241 6.241)" fill="none" stroke="#434343" stroke-linecap="round" stroke-linejoin="round" stroke-width="1.5"/>
  <path id="Path_136" data-name="Path 136" d="M577.625,1549.573v6.083a1,1,0,0,0,1,1h2.257a1,1,0,0,0,1-1v-9.393a.173.173,0,0,1,.172-.173H584.8a.706.706,0,0,0,.7-.615l.349-2.7a.706.706,0,0,0-.7-.8h-3.1a.173.173,0,0,1-.172-.173v-2.455c0-1.192.33-2,2.04-2h1.333a.848.848,0,0,0,.847-.847v-2.064a.845.845,0,0,0-.781-.845c-.6-.045-1.458-.089-2.4-.089-3.143,0-5.295,1.919-5.295,5.442v2.863a.172.172,0,0,1-.172.173h-2.623a.758.758,0,0,0-.758.758v2.6a.758.758,0,0,0,.758.758h2.623" transform="translate(-552.853 -1518.519)" fill="none" stroke="#434343" stroke-linecap="round" stroke-linejoin="round" stroke-width="1.5"/>
</svg>
