<svg xmlns="http://www.w3.org/2000/svg" width="78" height="52" viewBox="0 0 78 52">
  <g id="Group_2107" data-name="Group 2107" transform="translate(0 0)">
    <rect id="Rectangle_1292" data-name="Rectangle 1292" width="78" height="52" rx="5" transform="translate(0 0)" fill="#f5f5f5"/>
    <g id="SODEXO" transform="translate(11.621 16.32)">
      <path id="Caminho_3934" data-name="Caminho 3934" d="M655.942,1658.429c.379-.777.74-1.564,1.129-2.342.1.8.213,1.583.324,2.379.769-.259,1.518-.565,2.3-.787-.547.667-1.074,1.351-1.6,2.036.574.454,1.148.89,1.712,1.343-.769.083-1.539.12-2.3.185-.028.815-.083,1.638-.13,2.462-.444-.593-.852-1.2-1.277-1.806-.638.583-1.287,1.167-1.907,1.768.24-.833.481-1.667.712-2.5-.74-.093-1.49-.192-2.231-.3.721-.407,1.453-.824,2.175-1.24-.3-.713-.6-1.417-.888-2.13.657.325,1.333.6,1.99.926Z" transform="translate(-606.499 -1656.087)" fill="#211e1f" stroke="#00297c" stroke-miterlimit="10" stroke-width="0.094"/>
      <path id="Caminho_3935" data-name="Caminho 3935" d="M613.571,1668.322c.649-.056,1.3-.092,1.935-.139q-.695,3.693-1.4,7.369a4.717,4.717,0,0,1-1.676,2.925,5.376,5.376,0,0,1-3.511.88,3.9,3.9,0,0,1-2.9-1.287,3.6,3.6,0,0,1-.416-3.258,4.5,4.5,0,0,1,2.613-2.925,10.638,10.638,0,0,1,4.759-.518c.192-1.019.4-2.037.592-3.046Z" transform="translate(-585.893 -1661.36)" fill="#211e1f" stroke="#00297c" stroke-miterlimit="10" stroke-width="0.094"/>
      <path id="Caminho_3936" data-name="Caminho 3936" d="M641.221,1674.987a47.93,47.93,0,0,0,5.369-5.508,15.121,15.121,0,0,1-4.166,6.795,13.788,13.788,0,0,1-1.407,1.12,10.537,10.537,0,0,1-5.749,1.907l.048-.037a35.974,35.974,0,0,0,4.629-3.173c.426-.362.879-.7,1.277-1.1Z" transform="translate(-598.915 -1661.925)" fill="#777"/>
      <path id="Caminho_3937" data-name="Caminho 3937" d="M592.037,1673.947a5.309,5.309,0,0,1,3.222.537,2.73,2.73,0,0,1,1.343,1.971,4.621,4.621,0,0,1-.815,3.157,5.649,5.649,0,0,1-4.166,2.3,5.3,5.3,0,0,1-3.148-.565,2.724,2.724,0,0,1-1.333-2.055,4.694,4.694,0,0,1,1.055-3.37,5.732,5.732,0,0,1,3.842-1.972Z" transform="translate(-577.929 -1663.848)" fill="#211e1f" stroke="#00297c" stroke-miterlimit="10" stroke-width="0.094"/>
      <path id="Caminho_3938" data-name="Caminho 3938" d="M623.894,1675.4a5.965,5.965,0,0,1,4.295-1.509,3.684,3.684,0,0,1,2.343.694,1.952,1.952,0,0,1,.37,2.277,2.984,2.984,0,0,1-1.611,1.314,9.179,9.179,0,0,1-4.851.231,2.332,2.332,0,0,0,1.1,2.287,7.205,7.205,0,0,0,4.166.491l-.048.037a5.728,5.728,0,0,1-4.166.824,3.813,3.813,0,0,1-2.463-1.342,2.927,2.927,0,0,1-.61-2.111,4.656,4.656,0,0,1,1.472-3.194Z" transform="translate(-593.308 -1663.843)" fill="#211e1f" stroke="#00297c" stroke-miterlimit="10" stroke-width="0.094"/>
      <path id="Caminho_3939" data-name="Caminho 3939" d="M658.374,1673.917a5.863,5.863,0,0,1,3.333.361,2.807,2.807,0,0,1,1.62,2.046,4.554,4.554,0,0,1-.731,3.194,5.648,5.648,0,0,1-3.954,2.407,5.872,5.872,0,0,1-3.286-.388,2.8,2.8,0,0,1-1.572-1.944,4.474,4.474,0,0,1,.574-3.055,5.586,5.586,0,0,1,4.018-2.62Z" transform="translate(-606.958 -1663.818)" fill="#211e1f" stroke="#00297c" stroke-miterlimit="10" stroke-width="0.094"/>
      <path id="Caminho_3940" data-name="Caminho 3940" d="M574.665,1674.369a9.685,9.685,0,0,1,2.62-.315,16.113,16.113,0,0,1,2.907.222c-.139.371-.278.731-.4,1.1a14.053,14.053,0,0,0-4.175.12c-.416.111-.953.277-1.064.769-.019.371.323.584.638.674a17.662,17.662,0,0,1,2.963.667,1.45,1.45,0,0,1,.879,1.058,2.579,2.579,0,0,1-.62,2.138,4.154,4.154,0,0,1-2.333,1.093,13.09,13.09,0,0,1-5.258-.305c.092-.389.2-.778.3-1.167a13.557,13.557,0,0,0,4.452.111c.556-.121,1.185-.417,1.287-1.037.111-.407-.25-.732-.6-.834-.935-.288-1.935-.222-2.851-.565a1.5,1.5,0,0,1-.935-.824,1.911,1.911,0,0,1,.538-2.055,4.226,4.226,0,0,1,1.656-.851Z" transform="translate(-570.824 -1663.918)" fill="#211e1f" stroke="#00297c" stroke-miterlimit="10" stroke-width="0.094"/>
      <path id="Caminho_3941" data-name="Caminho 3941" d="M638.484,1674.057c.6,0,1.213.009,1.815,0a37.239,37.239,0,0,0,2.37,2.879l-.049.048c-.4.4-.851.741-1.277,1.1a39.61,39.61,0,0,1-2.861-4.027Z" transform="translate(-600.317 -1663.921)" fill="#211e1f" stroke="#00297c" stroke-miterlimit="10" stroke-width="0.094"/>
      <path id="Caminho_3942" data-name="Caminho 3942" d="M610.76,1676.52a6.1,6.1,0,0,1,3.5-.417c-.213.981-.4,1.963-.6,2.933a2.881,2.881,0,0,1-.824,1.683,2.776,2.776,0,0,1-2.222.574,1.641,1.641,0,0,1-1.361-.815,2.653,2.653,0,0,1-.049-1.889,3.143,3.143,0,0,1,1.555-2.074Z" transform="translate(-587.488 -1664.772)" fill="#fff" stroke="#fff" stroke-miterlimit="10" stroke-width="0.094"/>
      <path id="Caminho_3943" data-name="Caminho 3943" d="M628.19,1676.357a3.273,3.273,0,0,1,2.138-.231.837.837,0,0,1,.658.731,1.225,1.225,0,0,1-.926,1.213,7.445,7.445,0,0,1-3.555.093,3.489,3.489,0,0,1,1.683-1.805Z" transform="translate(-595.096 -1664.786)" fill="#fff" stroke="#fff" stroke-miterlimit="10" stroke-width="0.094"/>
      <path id="Caminho_3944" data-name="Caminho 3944" d="M593.473,1676.365a2.435,2.435,0,0,1,2.093.37,1.946,1.946,0,0,1,.555,1.694,3.831,3.831,0,0,1-.769,1.917,3.171,3.171,0,0,1-2.573,1.213,2.029,2.029,0,0,1-1.491-.529,1.593,1.593,0,0,1-.417-1.037,3.594,3.594,0,0,1,2.6-3.629Z" transform="translate(-579.561 -1664.886)" fill="#fff" stroke="#fff" stroke-miterlimit="10" stroke-width="0.094"/>
      <path id="Caminho_3945" data-name="Caminho 3945" d="M660.2,1676.336a2.478,2.478,0,0,1,2,.306,1.767,1.767,0,0,1,.676,1.406,3.558,3.558,0,0,1-2.092,3.323,3.146,3.146,0,0,1-2.323.048,1.486,1.486,0,0,1-.917-1.251,3.633,3.633,0,0,1,2.657-3.832Z" transform="translate(-608.62 -1664.875)" fill="#fff" stroke="#fff" stroke-miterlimit="10" stroke-width="0.094"/>
      <path id="Caminho_3946" data-name="Caminho 3946" d="M645.461,1682.644a13.867,13.867,0,0,0,1.407-1.12c1.139,1.25,2.3,2.481,3.453,3.713-.805-.019-1.62.01-2.426-.01a3.328,3.328,0,0,1-.529-.491c-.666-.673-1.314-1.361-1.907-2.092Z" transform="translate(-603.358 -1667.175)" fill="#211e1f" stroke="#00297c" stroke-miterlimit="10" stroke-width="0.094"/>
    </g>
  </g>
</svg>
