<svg xmlns="http://www.w3.org/2000/svg" width="79" height="52" viewBox="0 0 79 52">
  <g id="Group_2103" data-name="Group 2103" transform="translate(-0.5)">
    <rect id="Rectangle_1290" data-name="Rectangle 1290" width="79" height="52" rx="5" transform="translate(0.5)" fill="#f5f5f5"/>
    <g id="TICKET" transform="translate(3.798 14.884)">
      <path id="Caminho_3957" data-name="Caminho 3957" d="M804.1,1689.352c0,.628,2.616,1.15,5.86,1.15,3.348,0,5.963-.522,5.963-1.15,0-.733-2.616-1.256-5.963-1.256C806.72,1688.1,804.1,1688.619,804.1,1689.352Z" transform="translate(-800.128 -1667.636)" fill="#b2b2b2" fill-rule="evenodd"/>
      <path id="Caminho_3958" data-name="Caminho 3958" d="M846.15,1667.561c0,.546-.273.682-.954.682h-2.319l-1.5,6.955-.136,1.091h-3.41l.272-1.091,1.5-6.955H836.33l.545-2.047h9.683l-.409,1.365Z" transform="translate(-814.176 -1658.089)" fill="#000007" fill-rule="evenodd"/>
      <path id="Caminho_3959" data-name="Caminho 3959" d="M854.319,1675.2l-.137,1.091h-2.864l.273-1.091,1.227-5.592c.136-.681.273-.817.954-.817h2.046l-1.5,6.41Zm1.773-7.773c-.136.682-.409.817-.954.817h-2.047l.273-1.227c.136-.683.273-.817.817-.817h2.183l-.273,1.228Z" transform="translate(-820.709 -1658.09)" fill="#000007" fill-rule="evenodd"/>
      <path id="Caminho_3960" data-name="Caminho 3960" d="M866.83,1671.119l-.682,1.091a2.938,2.938,0,0,0-1.5-.273,2.38,2.38,0,0,0-1.91.956,3.681,3.681,0,0,0-.682,2.045,1.505,1.505,0,0,0,1.635,1.635,4.059,4.059,0,0,0,2.046-.682v.137l-.409,1.363a1.208,1.208,0,0,1-.545.682,9.493,9.493,0,0,1-2.182.274c-2.182,0-3.545-1.228-3.545-3.137a5.311,5.311,0,0,1,2.182-3.819,5.867,5.867,0,0,1,3.682-1.091c1.091,0,1.909.137,1.909.546v.273Z" transform="translate(-824.082 -1659.876)" fill="#000007" fill-rule="evenodd"/>
      <path id="Caminho_3961" data-name="Caminho 3961" d="M877.9,1671.654l1.91,3.409c.545.817.409.817.682,1.227H878.04c-.682,0-.682,0-1.09-.955l-1.635-3.136h0v.273l-.545,2.727-.137,1.091h-3l.272-1.091,1.773-8.182c.136-.682.274-.817,1.091-.817h1.909l-.954,4.774-.272.409h.136l.136-.137,2.045-2.046a1.015,1.015,0,0,1,.954-.41h2.59l-3.41,2.865Z" transform="translate(-829.564 -1658.091)" fill="#000007" fill-rule="evenodd"/>
      <path id="Caminho_3962" data-name="Caminho 3962" d="M895.287,1674.534c-.137.273-.272.273-.546.273h-4.773a1.876,1.876,0,0,0,1.968,1.778l.078-.006a9.314,9.314,0,0,0,3-.682h0l-.273,1.227a1.642,1.642,0,0,1-.682.682,8.909,8.909,0,0,1-2.863.546c-2.456,0-4.092-1.365-4.092-3.41a4.911,4.911,0,0,1,5.182-4.637,2.832,2.832,0,0,1,3.136,3c0,.409-.136,1.091-.136,1.227Zm-3.136-2.864a2.14,2.14,0,0,0-1.91,1.774H892.7c.409,0,.545,0,.545-.682a1,1,0,0,0-1.091-1.092Z" transform="translate(-836.308 -1659.881)" fill="#000007" fill-rule="evenodd"/>
      <path id="Caminho_3963" data-name="Caminho 3963" d="M908.849,1670.577a.631.631,0,0,1-.682.41H906.8l-.682,2.864a2.4,2.4,0,0,0-.136.818.5.5,0,0,0,.545.545,3.779,3.779,0,0,0,1.773-.409l.137.136-.545,1.227c-.273.41-.273.41-.409.41a5,5,0,0,1-2.047.41c-1.5,0-2.455-.547-2.455-1.635a2.92,2.92,0,0,1,.136-.817l.818-3.546h-1.362l.545-1.364,4.092-2.453.274.136-.411,1.91h2.32v.136l-.546,1.227Z" transform="translate(-843.052 -1658.515)" fill="#000007" fill-rule="evenodd"/>
      <path id="Caminho_3964" data-name="Caminho 3964" d="M917.887,1669.979a1.039,1.039,0,0,1-1.176-.881,1.026,1.026,0,0,1,0-.294,1.728,1.728,0,0,1,1.764-1.568,1.1,1.1,0,0,1,1.176.98,1.9,1.9,0,0,1-1.764,1.764Zm.392-2.352a1.1,1.1,0,0,0-1.176.98v.2c0,.588.2.784.783.784a1.1,1.1,0,0,0,1.176-.98c.2-.2.2-.2.2-.391,0-.392-.391-.588-.98-.588Zm0,.98.393.392h0v.2h-.393a.193.193,0,0,0-.188-.2h-.008l-.2-.392v.588H917.3l.2-.2.2-.98h.588c.2,0,.393,0,.393.2A.422.422,0,0,1,918.279,1668.607Zm-.2-.391h0l-.2.391c.2,0,.2,0,.2-.2.2,0,.2,0,.2-.2Z" transform="translate(-849.209 -1658.541)" fill="#000007" fill-rule="evenodd"/>
      <ellipse id="Elipse_132" data-name="Elipse 132" cx="9.888" cy="9.888" rx="9.888" ry="9.888" fill="#6e6e6e"/>
    </g>
  </g>
</svg>
