<svg xmlns="http://www.w3.org/2000/svg" width="78.017" height="61.262" viewBox="0 0 78.017 61.262">
  <g id="Group_1897" data-name="Group 1897" transform="translate(0 0)">
    <circle id="Ellipse_102" data-name="Ellipse 102" cx="27.583" cy="27.583" r="27.583" transform="translate(0 55.166) rotate(-90)" fill="#fff"/>
    <g id="Group_87" data-name="Group 87" transform="translate(13.31 9.279)">
      <g id="Group_82" data-name="Group 82" transform="translate(6.512)">
        <path id="Path_55" data-name="Path 55" d="M325.8,319.522a25.616,25.616,0,1,0-47.208,12.054l-2.912,9.665a.964.964,0,0,0,1.2,1.2l9.665-2.912A25.61,25.61,0,0,0,325.8,319.522Z" transform="translate(-274.624 -292.27)" fill="none" stroke="#009180" stroke-linecap="round" stroke-linejoin="round" stroke-width="1.5" fill-rule="evenodd"/>
        <path id="Path_56" data-name="Path 56" d="M313.234,328.153" transform="translate(-282.101 -299.219)" fill="none" stroke="#009180" stroke-linecap="round" stroke-linejoin="round" stroke-width="1.5" fill-rule="evenodd"/>
        <g id="Group_81" data-name="Group 81" transform="translate(12.409 14.408)">
          <path id="Path_57" data-name="Path 57" d="M298.583,317.05a1.169,1.169,0,0,0-.053-1.112c-.161-.316-1.428-3.44-1.956-4.71-.515-1.238-1.039-1.07-1.428-1.089-.37-.019-2.48.284-2.909.773a7.114,7.114,0,0,0-2.221,5.292c0,3.124,2.275,6.139,2.592,6.563s4.475,6.833,10.842,9.58a36.535,36.535,0,0,0,3.617,1.337,8.706,8.706,0,0,0,4,.251c1.218-.181,3.754-1.532,4.283-3.018a5.278,5.278,0,0,0,.37-3.016c-.161-.265-.581-.423-1.216-.741" transform="translate(-290.014 -310.138)" fill="none" stroke="#009180" stroke-linecap="round" stroke-linejoin="round" stroke-width="1.5" fill-rule="evenodd"/>
          <path id="Path_58" data-name="Path 58" d="M306.919,330.206a17.366,17.366,0,0,1-5.1-3.145,19.108,19.108,0,0,1-3.529-4.4" transform="translate(-291.581 -312.288)" fill="none" stroke="#009180" stroke-linecap="round" stroke-linejoin="round" stroke-width="1.5" fill-rule="evenodd"/>
          <path id="Path_59" data-name="Path 59" d="M319,330.7c-.635-.323-3.754-1.855-4.336-2.066s-1.006-.316-1.429.323" transform="translate(-294.511 -313.689)" fill="none" stroke="#009180" stroke-linecap="round" stroke-linejoin="round" stroke-width="1.5" fill-rule="evenodd"/>
        </g>
      </g>
      <g id="Group_86" data-name="Group 86">
        <g id="Group_84" data-name="Group 84">
          <line id="Line_58" data-name="Line 58" x1="4.326" transform="translate(0 8.328)" fill="none" stroke="#009180" stroke-linecap="round" stroke-linejoin="round" stroke-width="1.5"/>
          <line id="Line_59" data-name="Line 59" y2="3.42" transform="translate(8.932)" fill="none" stroke="#009180" stroke-linecap="round" stroke-linejoin="round" stroke-width="1.5"/>
        </g>
        <g id="Group_85" data-name="Group 85" transform="translate(63.958) rotate(90)">
          <line id="Line_58-2" data-name="Line 58" x1="4.326" transform="translate(0 8.328)" fill="none" stroke="#009180" stroke-linecap="round" stroke-linejoin="round" stroke-width="1.5"/>
          <line id="Line_59-2" data-name="Line 59" y2="3.42" transform="translate(8.932)" fill="none" stroke="#009180" stroke-linecap="round" stroke-linejoin="round" stroke-width="1.5"/>
        </g>
      </g>
    </g>
  </g>
</svg>
