<svg xmlns="http://www.w3.org/2000/svg" width="87.363" height="61.638" viewBox="0 0 87.363 61.638">
  <g id="Group_1899" data-name="Group 1899" transform="translate(0 0)">
    <circle id="Ellipse_104" data-name="Ellipse 104" cx="27.583" cy="27.583" r="27.583" transform="translate(0 55.166) rotate(-90)" fill="#fff"/>
    <g id="Group_51" data-name="Group 51" transform="translate(15.31 10.279)">
      <path id="Rectangle_31" data-name="Rectangle 31" d="M1.307,0H22.195A1.307,1.307,0,0,1,23.5,1.307V21.789a0,0,0,0,1,0,0H0a0,0,0,0,1,0,0V1.307A1.307,1.307,0,0,1,1.307,0Z" transform="translate(3.842 1.689)" fill="none" stroke="#009180" stroke-linecap="round" stroke-linejoin="round" stroke-width="1.5"/>
      <path id="Path_30" data-name="Path 30" d="M593.675,1353.994a14.824,14.824,0,0,1-8.794,4.728,1.935,1.935,0,0,1-2.224-1.91v-8.492a3.019,3.019,0,0,0-3.019-3.019H565.066c-.352.01-.7-.031-1.047,0-7.8.7-13.742,7.516-14.1,15.342l-.19,4.175h42.314a6.9,6.9,0,0,0,5.987-3.469l7.176-12.517-3.349-15.133h-4.351v10.339" transform="translate(-545.887 -1321.572)" fill="none" stroke="#009180" stroke-linecap="round" stroke-linejoin="round" stroke-width="1.5"/>
      <path id="Path_31" data-name="Path 31" d="M601.892,1350.036a14.737,14.737,0,0,1-.961,2.363" transform="translate(-550.932 -1323.182)" fill="none" stroke="#009180" stroke-linecap="round" stroke-linejoin="round" stroke-width="1.5"/>
      <rect id="Rectangle_32" data-name="Rectangle 32" width="11.533" height="7.958" rx="2.324" transform="translate(47.785 3.866)" fill="none" stroke="#009180" stroke-linecap="round" stroke-linejoin="round" stroke-width="1.5"/>
      <path id="Path_32" data-name="Path 32" d="M552.183,1366.882a12.232,12.232,0,0,1,24.464,0" transform="translate(-546.129 -1323.636)" fill="none" stroke="#009180" stroke-linecap="round" stroke-linejoin="round" stroke-width="1.5"/>
      <path id="Path_33" data-name="Path 33" d="M572.029,1368.569a7.047,7.047,0,1,1-14.094,0" transform="translate(-546.696 -1325.008)" fill="none" stroke="#009180" stroke-linecap="round" stroke-linejoin="round" stroke-width="1.5"/>
      <path id="Path_34" data-name="Path 34" d="M619.558,1368.569a7.047,7.047,0,1,1-14.094,0" transform="translate(-551.379 -1325.008)" fill="none" stroke="#009180" stroke-linecap="round" stroke-linejoin="round" stroke-width="1.5"/>
      <path id="Path_35" data-name="Path 35" d="M576.667,1340.215h8.4a2.222,2.222,0,0,1,2.221,2.222v1a2.222,2.222,0,0,1-2.221,2.222h-9.311" transform="translate(-548.452 -1322.214)" fill="none" stroke="#009180" stroke-linecap="round" stroke-linejoin="round" stroke-width="1.5"/>
      <path id="Path_36" data-name="Path 36" d="M597.958,1328.118h-3.25a1.479,1.479,0,0,0-1.479,1.479v1.771a1.48,1.48,0,0,0,1.479,1.479h8.72" transform="translate(-550.173 -1321.022)" fill="none" stroke="#009180" stroke-linecap="round" stroke-linejoin="round" stroke-width="1.5"/>
      <path id="Rectangle_33" data-name="Rectangle 33" d="M2.864,0H7.2a0,0,0,0,1,0,0V9.805a0,0,0,0,1,0,0H2.864A2.864,2.864,0,0,1,0,6.942V2.864A2.864,2.864,0,0,1,2.864,0Z" transform="translate(59.318 2.832)" fill="none" stroke="#009180" stroke-linecap="round" stroke-linejoin="round" stroke-width="1.5"/>
      <line id="Line_35" data-name="Line 35" x2="3.942" y2="4.88" transform="translate(3.842 23.478)" fill="none" stroke="#009180" stroke-linecap="round" stroke-linejoin="round" stroke-width="1.5"/>
      <path id="Path_37" data-name="Path 37" d="M609.363,1350.7c.285.008-.344-.025-.063,0,6.314.563,11.121,6.082,11.409,12.415l.154,3.379H590.825" transform="translate(-549.936 -1323.246)" fill="none" stroke="#009180" stroke-linecap="round" stroke-linejoin="round" stroke-width="1.5"/>
      <line id="Line_36" data-name="Line 36" x1="26.948" transform="translate(0.395 50.608)" fill="none" stroke="#009180" stroke-linecap="round" stroke-linejoin="round" stroke-width="1.5"/>
      <line id="Line_39" data-name="Line 39" x1="11.45" transform="translate(0 23.478)" fill="none" stroke="#009180" stroke-linecap="round" stroke-linejoin="round" stroke-width="1.5"/>
      <line id="Line_40" data-name="Line 40" x1="30.415" transform="translate(40.889 50.608)" fill="none" stroke="#009180" stroke-linecap="round" stroke-linejoin="round" stroke-width="1.5"/>
      <line id="Line_41" data-name="Line 41" x1="0.866" transform="translate(35.419 50.608)" fill="none" stroke="#009180" stroke-linecap="round" stroke-linejoin="round" stroke-width="1.5"/>
      <line id="Line_43" data-name="Line 43" y1="2.832" transform="translate(53.255)" fill="none" stroke="#009180" stroke-linecap="round" stroke-linejoin="round" stroke-width="1.5"/>
    </g>
  </g>
</svg>
