<svg id="Group_1913" data-name="Group 1913" xmlns="http://www.w3.org/2000/svg" width="76.154" height="60.435" viewBox="0 0 76.154 60.435">
  <ellipse id="Ellipse_105" data-name="Ellipse 105" cx="27.083" cy="27.583" rx="27.083" ry="27.583" transform="translate(0 54.166) rotate(-90)" fill="#fff"/>
  <g id="Group_11" data-name="Group 11" transform="translate(21.31 8.28)">
    <g id="Group_35" data-name="Group 35" transform="translate(10.178)">
      <g id="Group_34" data-name="Group 34">
        <g id="Group_33" data-name="Group 33">
          <path id="Path_20" data-name="Path 20" d="M885.427,907.886a15.386,15.386,0,1,1,21.758,0L897.6,918.462a1.747,1.747,0,0,1-2.59,0Z" transform="translate(-880.92 -881.67)" fill="none" stroke="#009180" stroke-linecap="round" stroke-linejoin="round" stroke-width="1.5"/>
        </g>
      </g>
      <ellipse id="Ellipse_8" data-name="Ellipse 8" cx="8.057" cy="8.057" rx="8.057" ry="8.057" transform="translate(7.329 7.106)" fill="none" stroke="#009180" stroke-linecap="round" stroke-linejoin="round" stroke-width="1.5"/>
    </g>
    <g id="Group_36" data-name="Group 36" transform="translate(0 37.754)">
      <line id="Line_10" data-name="Line 10" transform="translate(31.474)" fill="none" stroke="#009180" stroke-linecap="round" stroke-linejoin="round" stroke-width="1.5"/>
      <line id="Line_11" data-name="Line 11" x2="16.835" transform="translate(37.259)" fill="none" stroke="#009180" stroke-linecap="round" stroke-linejoin="round" stroke-width="1.5"/>
      <path id="Path_21" data-name="Path 21" d="M894.314,925.748H887a2.275,2.275,0,0,1-2.274-2.276h0A2.275,2.275,0,0,1,887,921.2h17.884a2.276,2.276,0,0,0,2.276-2.276h0a2.275,2.275,0,0,0-2.276-2.274H870.98a2.276,2.276,0,0,1-2.276-2.276h0a2.275,2.275,0,0,1,2.276-2.274H888.6" transform="translate(-868.704 -912.097)" fill="none" stroke="#009180" stroke-linecap="round" stroke-linejoin="round" stroke-width="1.5"/>
      <line id="Line_12" data-name="Line 12" x1="2.878" transform="translate(29.744 13.651)" fill="none" stroke="#009180" stroke-linecap="round" stroke-linejoin="round" stroke-width="1.5"/>
    </g>
  </g>
</svg>
