<svg xmlns="http://www.w3.org/2000/svg" width="78" height="52" viewBox="0 0 78 52">
  <g id="Group_2115" data-name="Group 2115" transform="translate(-0.5 0)">
    <g id="Group_2111" data-name="Group 2111">
      <rect id="Rectangle_1289" data-name="Rectangle 1289" width="78" height="52" rx="5" transform="translate(0.5 0)" fill="#f5f5f5"/>
    </g>
    <g id="Group_2110" data-name="Group 2110" transform="translate(11.415 8.87)">
      <path id="Path_552" data-name="Path 552" d="M108.663,26.617a11.211,11.211,0,0,1,8.919,4.407,10.352,10.352,0,0,1-4.3,7.282c.206-7.143-2.472-9.353-7.722-11.256a11.227,11.227,0,0,1,3.1-.434Zm9.454,5.166c-1.04,5.236-2.435,7.553-7.481,10.862.55-5.183.341-8.985-1.127-11.443a6.235,6.235,0,0,0-5.532-3.563,11.23,11.23,0,1,0,14.139,4.144Z" transform="translate(-81.392 -26.617)" fill="#070607" fill-rule="evenodd"/>
      <path id="Path_553" data-name="Path 553" d="M54.4,94.329h1.619l2.1,6.5,2.1-6.5h1.433l-2.7,8.947H57.152L54.4,94.329Zm49.569.056h2.984a2.979,2.979,0,0,1,2.553,1.431c.618.945.639,4.462.145,5.475a3.051,3.051,0,0,1-3.106,1.881h-2.577V94.385Zm.528.528v7.731h2.049a2.535,2.535,0,0,0,2.631-1.585c.409-.839.4-4.176-.112-4.955a2.453,2.453,0,0,0-2.111-1.192Zm-6.7.03V99.11h2.264c.109,0,.216-.01.325-.018a2.305,2.305,0,0,0,1.757-1.1,2.211,2.211,0,0,0,.17-2.036,1.907,1.907,0,0,0-1.856-1.014Zm4.933,8.305-2.6-3.612H97.8v3.605h-.528V94.415h3.188c3.5,0,3.227,4.552.274,5.156l2.646,3.672-.007.005Zm-9.613-8.167-1.7,4.719h3.466l-1.762-4.719Zm-1.895,5.247-1.055,2.92h-.562l3.221-8.933H93.4l3.333,8.935h-.564l-1.091-2.92Zm-2.1-3.558.029.155h.54l-.049-.255c-.668-3.5-6.163-2.987-6.163.507v2.959a3.248,3.248,0,0,0,1.131,2.568,3.207,3.207,0,0,0,2.393.706,3.028,3.028,0,0,0,2.637-2.511l.041-.189h-.542l-.017.078a2.5,2.5,0,0,1-2.179,2.095,2.672,2.672,0,0,1-1.994-.587,2.722,2.722,0,0,1-.94-2.16V97.177c0-2.863,4.565-3.271,5.112-.407ZM79.115,94.322h0a3.367,3.367,0,0,1,3.358,3.358V99.91a3.368,3.368,0,0,1-3.358,3.358h0a3.368,3.368,0,0,1-3.358-3.358V97.679a3.367,3.367,0,0,1,3.358-3.358Zm0,1.292a2.071,2.071,0,0,0-2.065,2.065V99.91a2.071,2.071,0,0,0,2.065,2.065h0A2.071,2.071,0,0,0,81.18,99.91V97.679a2.071,2.071,0,0,0-2.065-2.065Zm-10.446,7.668h1.514V99.95h1.468l2.26,3.331h1.771L73.469,99.6c2.156-.309,2.628-5.219-1.12-5.219H68.693l-.024,8.9Zm1.515-7.735h1.711c2.257,0,2.415,2.966.082,2.966-.585,0-1.193,0-1.793-.007V95.546ZM62.337,94.31v8.931h5.942v-1.467h-4.45v-2.33h4.031V98.034H63.828v-2.2h4.45V94.31Z" transform="translate(-54.402 -69.062)" fill="#070607" fill-rule="evenodd"/>
    </g>
  </g>
</svg>
