<svg xmlns="http://www.w3.org/2000/svg" width="79" height="52" viewBox="0 0 79 52">
  <g id="Group_2100" data-name="Group 2100" transform="translate(-0.5)">
    <rect id="Rectangle_1295" data-name="Rectangle 1295" width="79" height="52" rx="5" transform="translate(0.5)" fill="#f5f5f5"/>
    <g id="VISA" transform="translate(18.04 18.989)">
      <path id="Caminho_3926" data-name="Caminho 3926" d="M165.839,1673.561H162.29l2.218-13.631h3.549Z" transform="translate(-146.986 -1659.686)" fill="#000007"/>
      <path id="Caminho_3927" data-name="Caminho 3927" d="M147.479,1659.93l-3.383,9.377-.4-2.02h0l-1.194-6.13a1.519,1.519,0,0,0-1.683-1.227h-5.593l-.065.23a13.262,13.262,0,0,1,3.712,1.559l3.084,11.842h3.7l5.646-13.631Z" transform="translate(-135.16 -1659.686)" fill="#000007"/>
      <path id="Caminho_3928" data-name="Caminho 3928" d="M199.247,1673.557h3.258l-2.841-13.631h-2.853a1.63,1.63,0,0,0-1.639,1.016l-5.29,12.615h3.7l.74-2.024h4.512Zm-3.906-4.822,1.865-5.1,1.05,5.1Z" transform="translate(-159.014 -1659.682)" fill="#000007"/>
      <path id="Caminho_3929" data-name="Caminho 3929" d="M182.562,1663.019l.506-2.928a10.254,10.254,0,0,0-3.192-.594c-1.758,0-5.942.77-5.942,4.512,0,3.522,4.908,3.566,4.908,5.415s-4.4,1.519-5.855.352l-.529,3.06a9.941,9.941,0,0,0,4.006.769c2.421,0,6.075-1.254,6.075-4.664,0-3.544-4.953-3.874-4.953-5.415S181.044,1662.182,182.562,1663.019Z" transform="translate(-151.418 -1659.497)" fill="#000007"/>
      <path id="Caminho_3930" data-name="Caminho 3930" d="M143.7,1667.287l-1.195-6.13a1.519,1.519,0,0,0-1.683-1.227h-5.593l-.065.23a13.759,13.759,0,0,1,5.267,2.645A10.632,10.632,0,0,1,143.7,1667.287Z" transform="translate(-135.16 -1659.686)" fill="#777"/>
    </g>
  </g>
</svg>
