<svg xmlns="http://www.w3.org/2000/svg" width="78" height="52" viewBox="0 0 78 52">
  <g id="Group_2104" data-name="Group 2104" transform="translate(-0.5 0)">
    <rect id="Rectangle_1289" data-name="Rectangle 1289" width="78" height="52" rx="5" transform="translate(0.5 0)" fill="#f5f5f5"/>
    <g id="VR" transform="translate(24.233 7.774)">
      <path id="Caminho_3965" data-name="Caminho 3965" d="M707.855,1698.751h29.534v-6.859H707.855Z" transform="translate(-707.855 -1663.038)" fill="#6e6e6e" fill-rule="evenodd"/>
      <path id="Caminho_3966" data-name="Caminho 3966" d="M737.389,1669.722H707.855v-28.98h29.534v28.98Z" transform="translate(-707.855 -1640.742)" fill="#000007"/>
      <path id="Caminho_3967" data-name="Caminho 3967" d="M735.464,1675.315H728.88l-2.276-8.553h1.629a1.758,1.758,0,0,0,1.57-1.692c0-1.115-1.025-1.092-1.384-1.106h-2.03l-4.4,11.354h-6.523l-4.4-12h5.384l2.123,6.369,2.523-9.937h9.644a4.85,4.85,0,0,1,4.723,4.968,5.015,5.015,0,0,1-2.416,4.337l2.416,6.263Z" transform="translate(-709.255 -1649.028)" fill="#fff"/>
      <path id="Caminho_3968" data-name="Caminho 3968" d="M717.95,1697.834v-3.478a4.9,4.9,0,0,1,.921-.078,1.6,1.6,0,0,1,1.02.261.867.867,0,0,1,.319.706.883.883,0,0,1-.179.55,1.008,1.008,0,0,1-.5.344.925.925,0,0,1,.518.716,6.607,6.607,0,0,0,.283.979h-.5a4.473,4.473,0,0,1-.236-.838,1.025,1.025,0,0,0-.249-.525.657.657,0,0,0-.468-.154h-.444v1.517Zm.487-3.144v1.261h.486a.89.89,0,0,0,.583-.178.645.645,0,0,0,.054-.911.6.6,0,0,0-.047-.048.965.965,0,0,0-.606-.166,2.02,2.02,0,0,0-.47.042Zm4.529,1.977H721.13a.826.826,0,0,0,.253.628.908.908,0,0,0,.63.219,1.928,1.928,0,0,0,.738-.131l.083.34a2.148,2.148,0,0,1-.883.167,1.207,1.207,0,0,1-1.292-1.115,1.273,1.273,0,0,1,0-.166,1.444,1.444,0,0,1,.337-.973,1.126,1.126,0,0,1,.9-.393.972.972,0,0,1,.8.349,1.326,1.326,0,0,1,.28.855,1.209,1.209,0,0,1-.016.219Zm-1.83-.35h1.375a.792.792,0,0,0-.168-.529.6.6,0,0,0-.481-.2.653.653,0,0,0-.489.2.915.915,0,0,0-.238.529Zm2.96,1.517h-.489v-2.161h-.356v-.371h.356v-.116a1.273,1.273,0,0,1,.248-.838.844.844,0,0,1,.688-.3,1.069,1.069,0,0,1,.4.073l-.057.377a.751.751,0,0,0-.3-.059q-.5,0-.5.728v.131h.625v.371H724.1v2.16Zm3.1-1.167h-1.836a.83.83,0,0,0,.253.628.908.908,0,0,0,.631.219,1.93,1.93,0,0,0,.737-.131l.083.34a2.152,2.152,0,0,1-.884.167,1.206,1.206,0,0,1-1.292-1.281,1.444,1.444,0,0,1,.337-.973,1.127,1.127,0,0,1,.9-.393.969.969,0,0,1,.8.349,1.321,1.321,0,0,1,.28.855,1.181,1.181,0,0,1-.015.219Zm-1.832-.35h1.375a.792.792,0,0,0-.168-.529.6.6,0,0,0-.481-.2.654.654,0,0,0-.489.2.914.914,0,0,0-.238.529Zm2.919,1.517H727.8V1695.3h.487Zm.068-3.3a.3.3,0,0,1-.29.309h-.023a.3.3,0,0,1-.222-.089.306.306,0,0,1-.086-.219.294.294,0,0,1,.088-.217.305.305,0,0,1,.226-.087.3.3,0,0,1,.221.087A.293.293,0,0,1,728.352,1694.534Zm2.506,2.84.089.366a1.767,1.767,0,0,1-.711.147l-.126.2a.456.456,0,0,1,.266.123.325.325,0,0,1,.1.238.373.373,0,0,1-.149.317.776.776,0,0,1-.77.018l.078-.23a.537.537,0,0,0,.283.078q.23,0,.23-.162,0-.18-.414-.214l.221-.388a1.184,1.184,0,0,1-.8-.417,1.308,1.308,0,0,1-.289-.859,1.291,1.291,0,0,1,.39-.971,1.405,1.405,0,0,1,1.023-.378,1.5,1.5,0,0,1,.665.141l-.1.372a1.189,1.189,0,0,0-.56-.126.873.873,0,0,0-.665.262.94.94,0,0,0-.25.673.914.914,0,0,0,.254.673.875.875,0,0,0,.651.257,1.4,1.4,0,0,0,.586-.126Zm2.49-1.072v.926a3.586,3.586,0,0,0,.041.607h-.444l-.058-.325a.941.941,0,0,1-.8.382.792.792,0,0,1-.577-.214.7.7,0,0,1-.217-.513.777.777,0,0,1,.4-.7,2.281,2.281,0,0,1,1.17-.244v-.048a.578.578,0,0,0-.147-.42.593.593,0,0,0-.439-.15,1.261,1.261,0,0,0-.691.192l-.11-.319a1.61,1.61,0,0,1,.874-.231.974.974,0,0,1,.747.272,1.113,1.113,0,0,1,.252.785Zm-.476.669v-.419a1.745,1.745,0,0,0-.85.147.452.452,0,0,0-.238.4.415.415,0,0,0,.12.315.434.434,0,0,0,.315.114.666.666,0,0,0,.465-.172.514.514,0,0,0,.188-.388Zm-.89-2.076h-.247a.73.73,0,0,1,.091-.392.284.284,0,0,1,.254-.142.812.812,0,0,1,.34.12.559.559,0,0,0,.241.089c.082,0,.127-.075.136-.225h.24q0,.518-.356.518a.712.712,0,0,1-.33-.115.545.545,0,0,0-.236-.089c-.078,0-.123.078-.136.235Zm4.514,1.648a1.448,1.448,0,0,1-.17.714,1.175,1.175,0,0,1-.476.47,1.373,1.373,0,0,1-.662.164,1.238,1.238,0,0,1-.914-.363,1.274,1.274,0,0,1-.361-.939,1.311,1.311,0,0,1,.373-.981,1.29,1.29,0,0,1,.94-.364,1.223,1.223,0,0,1,.918.362,1.284,1.284,0,0,1,.354.936Zm-2.086.03a1.041,1.041,0,0,0,.222.687.691.691,0,0,0,.557.271.719.719,0,0,0,.573-.272,1.051,1.051,0,0,0,.228-.7,1.084,1.084,0,0,0-.21-.673.679.679,0,0,0-.574-.278.7.7,0,0,0-.582.275,1.1,1.1,0,0,0-.213.692Z" transform="translate(-712.255 -1663.979)" fill="#fff"/>
    </g>
  </g>
</svg>
