<svg xmlns="http://www.w3.org/2000/svg" width="34.103" height="34.136" viewBox="0 0 34.103 34.136">
  <g id="Group_2097" data-name="Group 2097" transform="translate(-387.247 -5826.239)">
    <path id="Caminho_55" data-name="Caminho 55" d="M909.195,1168.864a16.3,16.3,0,1,0-30.036,7.669l-1.852,6.149a.613.613,0,0,0,.763.764l6.149-1.853a16.3,16.3,0,0,0,24.977-12.729Z" transform="translate(-488.633 4675.473)" fill="none" stroke="#000007" stroke-linecap="round" stroke-linejoin="round" stroke-width="1.5"/>
    <path id="Caminho_56" data-name="Caminho 56" d="M893.241,1166.96" transform="translate(-485.434 4678.446)" fill="none" stroke="#000007" stroke-linecap="round" stroke-linejoin="round" stroke-width="1.5"/>
    <g id="Grupo_81" data-name="Grupo 81" transform="translate(395.894 5836.162)">
      <path id="Caminho_57" data-name="Caminho 57" d="M888.7,1163.609a.744.744,0,0,0-.035-.707c-.1-.2-.909-2.188-1.244-3-.326-.787-.661-.68-.909-.693a4.09,4.09,0,0,0-1.851.493,4.525,4.525,0,0,0-1.413,3.367,7.837,7.837,0,0,0,1.649,4.175c.2.269,2.848,4.348,6.9,6.1a23.127,23.127,0,0,0,2.3.848,5.554,5.554,0,0,0,2.542.16,4.159,4.159,0,0,0,2.725-1.921,3.359,3.359,0,0,0,.236-1.918c-.1-.169-.37-.269-.774-.472" transform="translate(-883.252 -1159.209)" fill="none" stroke="#000007" stroke-linecap="round" stroke-linejoin="round" stroke-width="1.5"/>
      <path id="Caminho_58" data-name="Caminho 58" d="M892.322,1169.544a11.051,11.051,0,0,1-3.247-2,12.2,12.2,0,0,1-2.246-2.8" transform="translate(-882.564 -1158.142)" fill="none" stroke="#000007" stroke-linecap="round" stroke-linejoin="round" stroke-width="1.5"/>
      <path id="Caminho_59" data-name="Caminho 59" d="M896.908,1168.515c-.4-.205-2.388-1.179-2.759-1.314s-.639-.2-.909.205" transform="translate(-881.329 -1157.689)" fill="none" stroke="#000007" stroke-linecap="round" stroke-linejoin="round" stroke-width="1.5"/>
    </g>
  </g>
</svg>
