<?xml version="1.0" encoding="utf-8"?>
<!-- Generator: Adobe Illustrator 25.0.0, SVG Export Plug-In . SVG Version: 6.00 Build 0)  -->
<svg version="1.1" id="Layer_1" xmlns="http://www.w3.org/2000/svg" xmlns:xlink="http://www.w3.org/1999/xlink" x="0px" y="0px"
	 viewBox="0 0 800 800" style="enable-background:new 0 0 800 800;" xml:space="preserve">
<style type="text/css">
	.st0{fill:#FF6B57;}
</style>
<path class="st0" d="M642,308.3c-2-28.6-13.2-51.4-32.5-66.1c-35.6-36-95.5-54.2-178-54.2h-46.8c-0.7,0-1.3,0.1-2,0.2
	c-4.7-0.1-9.4-0.2-14.3-0.2c-82.4,0-142.3,18.2-178,54.2c-19.2,14.6-30.4,37.4-32.5,66.1c-0.5,5.2-0.5,8.9-0.4,10.4
	c0,48.6,0.1,94.4,50.4,104.1c7.9,1.5,13.7,8.4,13.7,16.3v31.1c-41.7,15.5-71.3,55.6-71.3,102.6c0,60.4,49,109.4,109.4,109.4
	c46.6,0,86.4-29.1,102.2-70.2h167c27.2,0,49.3-22.1,49.3-49.3V439.1c0-7.9,5.8-14.8,13.7-16.3c50.2-9.6,50.4-55.5,50.4-104.1
	C642.4,317.2,642.5,313.5,642,308.3z M184.7,572.8c0-27.6,14.8-51.7,37-64.7c9.2-5.4,19.7-9,30.8-10c2.4-0.2,4.8-0.3,7.3-0.3
	c15.2,0,29.2,4.5,41,12.2l-59.4,59.4l-14.8,14.8l0,0l-29.7,29.7C189.2,602,184.7,587.9,184.7,572.8z M259.8,647.9
	c-15.1,0-29.2-4.5-41-12.2l103.9-103.9c7.7,11.8,12.2,25.9,12.2,41c0,2.8-0.2,5.6-0.5,8.4c-1.2,11.2-5,21.7-10.6,30.8
	C310.6,633.5,286.9,647.9,259.8,647.9z M548.5,317.2c0,0.4,0,0.7,0,1.1c0,63.7-6.6,70.6-25.3,74.2c-22.4,4.3-38.7,23.9-38.7,46.6
	v123.6c0,10.2-8.3,18.5-18.5,18.5h-97c0.2-2.8,0.3-5.6,0.3-8.4c0-60.4-49-109.4-109.4-109.4c-2.4,0-4.9,0.1-7.3,0.2v-24.5
	c0-22.7-16.3-42.3-38.7-46.6c-18.8-3.6-25.3-10.5-25.3-74.2c0-0.3,0-0.7,0-0.9c0,0-0.1-2.3,0.3-6.1c0-0.2,0-0.4,0-0.6
	c1.4-20.2,8.5-35.2,21-44.4c0.7-0.5,1.3-1.1,1.9-1.7c29.1-29.9,83.3-45.8,156.7-45.8c73.4,0,127.6,15.8,156.7,45.8
	c0.6,0.6,1.2,1.2,1.9,1.7c12.6,9.2,19.6,24.2,21,44.4c0,0.2,0,0.4,0.1,0.6C548.6,315,548.5,317.2,548.5,317.2z"/>
</svg>
