<?xml version="1.0" encoding="utf-8"?>
<!-- Generator: Adobe Illustrator 25.0.0, SVG Export Plug-In . SVG Version: 6.00 Build 0)  -->
<svg version="1.1" id="Layer_1" xmlns="http://www.w3.org/2000/svg" xmlns:xlink="http://www.w3.org/1999/xlink" x="0px" y="0px"
	 viewBox="0 0 800 800" style="enable-background:new 0 0 800 800;" xml:space="preserve">
<style type="text/css">
	.st0{fill:#009180;}
</style>
<path class="st0" d="M533,468.5c-3.5,0-7,0.2-10.5,0.5v-74.3c0-37.3-0.5-39.5-19.3-77.8l-6-12.4c-13.4-27.5-23.4-54.3-29.4-71.9h1.2
	c8.9,0,16-7.2,16-16v-51.5c0-8.9-7.2-16.1-16-16.1H331.1c-8.9,0-16,7.2-16,16.1v51.5c0,8.9,7.2,16,16,16h1.2
	c-6,17.6-16,44.4-29.4,71.9l-6,12.4c-18.8,38.3-19.3,40.5-19.3,77.8v207.7c0,26.7,21.8,48.5,48.5,48.5h125.5
	c20,22.4,49.1,36.4,81.5,36.4c60.4,0,109.4-49,109.4-109.4C642.4,517.5,593.4,468.5,533,468.5z M347.1,181.2h105.7v19.4h-6.7
	c-0.1,0-0.2,0-0.4,0h-91.5c-0.1,0-0.2,0-0.4,0h-6.7V181.2z M326,618.8c-9,0-16.4-7.3-16.4-16.4V394.7c0-31,0-31,16-63.6
	c1.8-3.8,3.8-7.9,6.1-12.5c17.2-35.3,28.9-68.9,34.4-86h67.9c5.5,17.1,17.2,50.7,34.4,86c2.2,4.6,4.3,8.7,6.1,12.5
	c16,32.7,16,32.7,16,63.6v82.4c-7.8,3.3-15.2,7.5-22,12.5v-63.2c0-6-2.8-11.8-7.7-15.3c-8.7-6.2-19.1-9.5-29.8-9.5h-7.5
	c-14,0-27.5,5.8-37.4,16.2c-9.9,10.3-23.4,16.2-37.4,16.2l-6.9,0.3c-5.1,0.2-9.2,4.5-9.2,9.6l0,69.8l-0.5,55.7
	c-0.1,9.9,7.9,17.9,17.7,17.9h74.3c0.9,11.1,3.5,21.8,7.5,31.7H326z M470.2,618.8H470c-6.4-9.8-10.6-21.2-11.8-33.5
	c-0.2-2.4-0.4-4.9-0.4-7.4c0-14,3.8-27.1,10.5-38.3c5.6-9.4,13.1-17.4,22-23.5c9.4-6.5,20.3-10.8,32.1-12.5
	c3.4-0.5,6.9-0.7,10.5-0.7c15.1,0,29.2,4.5,41,12.2l-51.5,51.5l-32.1,32.1L470.2,618.8z M533,653c-12.6,0-24.4-3.1-34.8-8.5
	c-2.1-1.1-4.2-2.3-6.2-3.7l29.8-29.8l74.1-74.1c7.7,11.8,12.2,25.9,12.2,41C608,619.4,574.4,653,533,653z"/>
</svg>
