<?xml version="1.0" encoding="utf-8"?>
<!-- Generator: Adobe Illustrator 25.0.0, SVG Export Plug-In . SVG Version: 6.00 Build 0)  -->
<svg version="1.1" id="Layer_1" xmlns="http://www.w3.org/2000/svg" xmlns:xlink="http://www.w3.org/1999/xlink" x="0px" y="0px"
	 viewBox="0 0 800 800" style="enable-background:new 0 0 800 800;" xml:space="preserve">
<style type="text/css">
	.st0{fill:#FF6B57;}
</style>
<path class="st0" d="M509.2,463.3c-8.4,0-16.7,1-24.5,2.8V422c0-8.4-6.8-15.2-15.2-15.2h-2.7c11.1-13.9,17.9-31.4,17.9-50.6V301
	c0-8.4-6.8-15.2-15.2-15.2h-54.2c12.8-29.6,7.1-65.2-17-89.4l-39-39c-2.8-2.8-6.7-4.5-10.8-4.5c-4,0-7.9,1.6-10.7,4.5l-39,39
	c-24.1,24.1-29.8,59.8-17,89.4h-54.2c-8.4,0-15.2,6.8-15.2,15.2v55.2c0,19.1,6.7,36.7,17.8,50.6h-2.7c-8.4,0-15.2,6.8-15.2,15.2
	v55.2c0,44.6,36.3,81,81,81h40v73.8c0,8.4,6.8,15.2,15.2,15.2s15.2-6.8,15.2-15.2v-73.8h37.1c-0.6,4.8-1,9.7-1,14.6
	c0,60.4,49,109.4,109.4,109.4c60.4,0,109.4-49,109.4-109.4C618.6,512.3,569.6,463.3,509.2,463.3z M414.2,316.2h40v40
	c0,27.9-22.7,50.6-50.6,50.6h-40v-40C363.7,338.9,386.4,316.2,414.2,316.2z M333.3,527.7h-40c-27.9,0-50.6-22.7-50.6-50.6v-40h40
	c27.9,0,50.6,22.7,50.6,50.6V527.7z M333.3,406.8h-40c-27.9,0-50.6-22.7-50.6-50.6v-40h40c27.9,0,50.6,22.7,50.6,50.6V406.8z
	 M348.5,317.7l-28.3-28.3c-19.7-19.7-19.7-51.8,0-71.5l28.3-28.3l28.3,28.3c19.7,19.7,19.7,51.8,0,71.5L348.5,317.7z M403.7,527.7
	h-40v-40c0-27.9,22.7-50.6,50.6-50.6h40v40c0,0.3,0,0.7,0,1c-19.5,11.4-35.2,28.6-44.6,49.3C407.7,527.6,405.7,527.7,403.7,527.7z
	 M434.1,572.8c0-7.7,1.1-15,3.3-22c6.6-21.4,22.4-38.8,42.9-47.3c8.9-3.7,18.7-5.8,28.9-5.8c15.2,0,29.2,4.5,41,12.2L446.3,613.8
	C438.6,602,434.1,587.9,434.1,572.8z M509.2,647.9c-15.1,0-29.2-4.5-41-12.2l103.9-103.9c7.7,11.8,12.2,25.9,12.2,41
	C584.3,614.2,550.7,647.9,509.2,647.9z"/>
</svg>
