<?xml version="1.0" encoding="utf-8"?>
<!-- Generator: Adobe Illustrator 25.0.0, SVG Export Plug-In . SVG Version: 6.00 Build 0)  -->
<svg version="1.1" id="Layer_1" xmlns="http://www.w3.org/2000/svg" xmlns:xlink="http://www.w3.org/1999/xlink" x="0px" y="0px"
	 viewBox="0 0 800 800" style="enable-background:new 0 0 800 800;" xml:space="preserve">
<style type="text/css">
	.st0{fill:#009180;}
</style>
<g>
	<path class="st0" d="M616.9,408.1h-122H463H183.1c-8.4,0-15.2,6.8-15.2,15.2c0,80.5,57.8,146,128.8,146h84.6h122
		c71,0,128.8-65.5,128.8-146C632.1,414.9,625.3,408.1,616.9,408.1z M199.1,438.5H463h136.6c-6.4,56.5-47.7,100.3-97.5,100.3H296.7
		C246.8,538.8,205.5,495,199.1,438.5z"/>
	<path class="st0" d="M515.1,384.9c0-24.7,20-44.7,44.7-44.7s44.7,20,44.7,44.7H515.1z"/>
	<path class="st0" d="M213.4,384.9c0-19.7,16-35.7,35.7-35.7s35.7,16,35.7,35.7H213.4z"/>
	<path class="st0" d="M517.9,296.3c-0.7-7-6.2-12.6-13.2-13.5c-29.2-3.7-55.8,4.5-74.7,23c-18.1,17.7-26.8,42.7-24.8,70.5
		c11.1-10.9,31.9-29.6,49.5-37.2c2.2-1,4.3,1.7,2.7,3.6c-9,11.1-26.8,34.9-30,51.5c1.6,0.1,3.2,0.2,4.8,0.2
		c23.8,0,45.2-8.3,61.1-23.9C512.2,352,520.9,325.6,517.9,296.3z"/>
	<path class="st0" d="M346.4,326c-0.5-2.4,2.6-3.8,4.1-1.9c11,13.6,19.9,36.6,25.1,51.7c13.8-28.6,15.4-58.6,4.2-85.4
		c-12-28.7-37-49.7-70.5-59.1c-6.8-1.9-14,1.1-17.4,7.3c-16.8,30.4-19.5,63-7.5,91.7c11.2,26.8,33.7,46.9,63.9,57.1
		C354.3,371.7,349.3,340.6,346.4,326z"/>
</g>
</svg>
