<?xml version="1.0" encoding="utf-8"?>
<!-- Generator: Adobe Illustrator 25.0.0, SVG Export Plug-In . SVG Version: 6.00 Build 0)  -->
<svg version="1.1" id="Layer_1" xmlns="http://www.w3.org/2000/svg" xmlns:xlink="http://www.w3.org/1999/xlink" x="0px" y="0px"
	 viewBox="0 0 800 800" style="enable-background:new 0 0 800 800;" xml:space="preserve">
<style type="text/css">
	.st0{fill:#009180;}
</style>
<g>
	<path class="st0" d="M313.6,435.6c0.4-16.5,3.1-32.7,7.7-48.3c-23.3-24.2-47.2-38.8-59-45.3c-2.3-1.2-1.5-4.7,1-4.9
		c29-2.7,52.7,4.5,71.9,16.2c6.5-12.2,14.4-23.8,23.5-34.4c-10.3-13.4-23.1-24.3-37.6-32.1c-2.6-1.6-6.2-3.4-10.8-5.2c0,0,0,0,0,0
		c-6-2.5-12.3-4.5-18.7-6c-64.4-16.5-124.1,9.6-124.1,9.6c-7.1,2.5-10.7,10.3-8.2,17.4l20.3,58.8c20.3,56.5,76.5,89.6,133.7,83.1
		C313.4,441.8,313.5,438.8,313.6,435.6z"/>
	<g>
		<path class="st0" d="M457.2,540c-12.1,0-24.4-1.2-36.8-3.7c-16.9-3.4-33.9-11.4-50.4-23.8c-2.4-1.8-4.2-4.1-5.3-6.7
			c-1.3-1.3-2.4-2.9-3.2-4.6c-18.1-38.5-17.6-86.3,1.2-127.9c21.3-46.9,51.4-78.3,89.5-93.3c83.3-34.9,167.5-14.2,175.6-12.1
			c18.7,4.1,30.8,22.5,27,41.4l-15.4,81.3C621.7,478.9,543.9,540,457.2,540z M401,492.3c8.8,5.3,17.6,8.8,26.1,10.5
			C509.2,519.4,589.4,466.1,606,384l15.4-81.3c0.2-0.8-0.2-1.3-0.8-1.4c-0.4-0.1-0.7-0.2-1.1-0.3c-0.8-0.2-79.4-20.7-154.4,10.7
			c-29.9,11.8-53.7,37.2-71.2,75.8c-9.6,21.3-13.2,44.5-10.7,66.2c19.6-31.2,56.5-71.4,121.2-86.8c9.2-2.2,18.4,3.5,20.6,12.7
			c2.2,9.2-3.5,18.4-12.7,20.6C442,416.8,411.4,468.9,401,492.3z"/>
	</g>
</g>
</svg>
